<svg width="81" height="81" viewBox="0 0 81 81" fill="none" xmlns="http://www.w3.org/2000/svg">
<path d="M40.3883 80.1243C30.9009 80.1243 21.7484 76.7758 14.4933 70.4137C-2.02586 56.1268 -3.81172 31.1248 10.4751 14.6056C17.3953 6.56926 26.9943 1.76976 37.5979 0.988444C48.2014 0.207131 58.3585 3.66723 66.3948 10.5874C82.914 24.8743 84.6999 49.9879 70.413 66.5071C63.4928 74.5435 53.8938 79.343 43.2903 80.1243C42.3974 80.1243 41.3928 80.1243 40.3883 80.1243ZM24.762 58.694C29.5615 62.9354 35.812 64.9445 42.1741 64.498C48.5363 64.0516 54.4519 61.1496 58.5817 56.2384C67.2878 46.193 66.1716 31.0132 56.1262 22.3071C51.3267 18.0657 45.0762 16.0566 38.714 16.5031C32.3519 16.9496 26.4363 19.8516 22.3065 24.7627C13.712 34.8081 14.7166 49.9879 24.762 58.694Z" fill="#F1F1F1"/>
</svg>
