<svg width="81" height="81" viewBox="0 0 81 81" fill="none" xmlns="http://www.w3.org/2000/svg">
<path d="M40.3883 80.1239C30.901 80.1239 21.7484 76.7755 14.4934 70.4133C-2.0258 56.1265 -3.81166 31.1244 10.4752 14.6053C17.3954 6.56889 26.9944 1.76939 37.5979 0.988078C48.2015 0.206765 58.3585 3.66686 66.3949 10.5871C82.9141 24.8739 84.7 49.9876 70.4131 66.5068C63.4929 74.5431 53.8939 79.3426 43.2904 80.1239C42.3974 80.1239 41.3929 80.1239 40.3883 80.1239ZM24.7621 58.6936C29.5616 62.9351 35.8121 64.9441 42.1742 64.4977C48.5363 64.0512 54.452 61.1492 58.5818 56.2381C67.2878 46.1926 66.1717 31.0128 56.1262 22.3068C51.3267 18.0653 45.0762 16.0563 38.7141 16.5027C32.352 16.9492 26.4363 19.8512 22.3065 24.7623C13.7121 34.8078 14.7166 49.9876 24.7621 58.6936Z" fill="#F1F1F1"/>
<path d="M64.8323 27.7759C62.6 27.7759 60.3677 26.883 58.805 24.9855C58.0237 23.981 57.1308 23.088 56.1263 22.3067C53.3358 19.8512 50.099 18.1769 46.5273 17.284C42.3975 16.1678 39.8303 11.9264 40.9465 7.79661C42.0626 3.66681 46.304 1.09964 50.4338 2.2158C56.3495 3.77843 61.5954 6.56883 66.2833 10.587C67.8459 11.9264 69.297 13.489 70.6364 15.0517C73.4268 18.4001 72.9803 23.3113 69.7434 26.1017C68.404 27.2178 66.6182 27.7759 64.8323 27.7759Z" fill="#171721"/>
</svg>
