<svg width="175" height="175" viewBox="0 0 175 175" fill="none" xmlns="http://www.w3.org/2000/svg">
<path d="M87.5001 174.338C65.8466 174.338 44.0814 166.301 27.2274 150.117C-7.262 116.855 -8.26655 61.7169 24.8835 27.2275C58.1451 -7.26191 113.172 -8.37807 147.773 24.8835C182.374 58.1452 183.378 113.172 150.117 147.773C133.04 165.408 110.27 174.338 87.5001 174.338ZM87.5001 16.2891C68.7486 16.2891 50.1087 23.5442 36.1567 38.0543C8.92234 66.4048 9.81527 111.609 38.0542 138.844C66.4047 166.078 111.609 165.185 138.844 136.946C166.078 108.596 165.185 63.3911 136.946 36.1568C123.106 22.8745 105.359 16.2891 87.5001 16.2891Z" fill="#F1F1F1"/>
<path d="M142.304 38.3885C140.406 38.3885 138.397 37.7188 136.834 36.1562C124.11 23.99 107.479 16.8466 89.9556 16.2885C85.6026 16.1769 82.2541 12.4936 82.3657 8.25216C82.4773 3.89913 86.1606 0.550641 90.402 0.662258C111.832 1.44357 132.146 10.038 147.661 24.883C150.786 27.8966 150.898 32.8077 147.884 35.933C146.433 37.4956 144.424 38.3885 142.304 38.3885Z" fill="#089FAC"/>
</svg>
