<svg width="221" height="221" viewBox="0 0 221 221" fill="none" xmlns="http://www.w3.org/2000/svg">
<path d="M110.5 221C49.5576 221 0 171.442 0 110.5C0 49.5576 49.5576 0 110.5 0C171.442 0 221 49.5576 221 110.5C221 171.442 171.442 221 110.5 221ZM110.5 15.6263C58.152 15.6263 15.6263 58.152 15.6263 110.5C15.6263 162.848 58.152 205.374 110.5 205.374C162.848 205.374 205.374 162.848 205.374 110.5C205.374 58.152 162.848 15.6263 110.5 15.6263Z" fill="#F1F1F1"/>
<path d="M110.5 221C87.6188 221 65.742 214.08 47.1021 201.021C28.9087 188.296 15.0683 170.55 7.25516 149.901C5.69253 145.882 7.70162 141.306 11.7198 139.855C15.738 138.292 20.3142 140.302 21.7653 144.32C35.7173 180.818 71.4345 205.374 110.5 205.374C162.848 205.374 205.374 162.848 205.374 110.5C205.374 58.152 162.848 15.6263 110.5 15.6263C106.147 15.6263 102.687 12.1662 102.687 7.81313C102.687 3.4601 106.147 0 110.5 0C171.443 0 221 49.5576 221 110.5C221 171.442 171.443 221 110.5 221Z" fill="#00E3F1"/>
</svg>
