<svg width="127" height="127" viewBox="0 0 127 127" fill="none" xmlns="http://www.w3.org/2000/svg">
<path d="M63.4999 126.786C63.1651 126.786 62.9418 126.786 62.607 126.786C45.7529 126.563 29.9034 119.755 18.0721 107.7C6.24082 95.6455 -0.121299 79.5728 0.101933 62.7187C0.325166 45.8647 7.13375 30.0152 19.1883 18.1839C31.2428 6.35258 47.3156 -0.00954367 64.1696 0.213689C81.0237 0.436921 96.8731 7.24551 108.704 19.3001C120.536 31.3546 126.898 47.4273 126.675 64.2814C126.451 81.1354 119.643 96.9849 107.588 108.816C95.757 120.424 80.1307 126.786 63.4999 126.786ZM63.4999 15.84C50.9989 15.84 39.2792 20.6394 30.2383 29.3455C21.0858 38.2748 16.063 50.1061 15.8398 62.8304C15.6166 75.5546 20.4161 87.6091 29.3454 96.6501C38.2747 105.803 50.106 110.825 62.8302 111.049C63.0534 111.049 63.2767 111.049 63.4999 111.049C76.0009 111.049 87.7206 106.249 96.7615 97.543C105.914 88.6137 110.937 76.7824 111.16 64.0581C111.383 51.3339 106.584 39.2793 97.6545 30.2384C88.7252 21.0859 76.8939 16.0632 64.1696 15.84C63.9464 15.84 63.7231 15.84 63.4999 15.84Z" fill="#F1F1F1"/>
<path d="M105.914 35.5957C103.682 35.5957 101.45 34.7027 99.8869 32.8053C91.8506 23.3179 80.6889 17.4022 68.4112 16.0628C64.1698 15.6164 61.0445 11.8214 61.491 7.46839C61.9374 3.11536 65.7324 0.101722 70.0854 0.548186C86.3814 2.22243 101.338 10.1472 111.941 22.7598C114.732 26.1083 114.285 31.0194 111.049 33.8098C109.486 35.0376 107.7 35.5957 105.914 35.5957Z" fill="#0F5B66"/>
</svg>
