<svg width="70" height="49" viewBox="0 0 70 49" fill="none" xmlns="http://www.w3.org/2000/svg">
<path d="M67.8009 26.0625H54.5403C53.8745 26.0625 53.2642 25.5215 53.2642 24.8182C53.2642 24.115 53.819 23.574 54.5403 23.574H67.8009C68.4667 23.574 69.077 24.115 69.077 24.8182C69.077 25.5215 68.4667 26.0625 67.8009 26.0625Z" fill="#00E3F1"/>
<path d="M14.5367 26.0625H1.27612C0.610312 26.0625 0 25.5215 0 24.8182C0 24.115 0.554828 23.574 1.27612 23.574H14.5367C15.2025 23.574 15.8128 24.115 15.8128 24.8182C15.8128 25.5215 15.2579 26.0625 14.5367 26.0625Z" fill="#00E3F1"/>
<path d="M48.1597 12.7535C47.8268 12.7535 47.4939 12.6453 47.272 12.3748C46.7726 11.8879 46.7726 11.1305 47.272 10.6437L57.1481 1.01409C57.6474 0.527203 58.4242 0.527203 58.9235 1.01409C59.4229 1.50098 59.4229 2.25836 58.9235 2.74525L49.0474 12.3748C48.77 12.6453 48.4926 12.7535 48.1597 12.7535Z" fill="#00E3F1"/>
<path d="M11.0411 48.9997C10.7082 48.9997 10.3753 48.8915 10.1533 48.621C9.65397 48.1342 9.65397 47.3768 10.1533 46.8899L19.0307 38.2341C19.53 37.7472 20.3068 37.7472 20.8061 38.2341C21.3055 38.721 21.3055 39.4783 20.8061 39.9652L11.9288 48.621C11.6514 48.8915 11.3185 48.9997 11.0411 48.9997Z" fill="#00E3F1"/>
<path d="M7.10179 44.4012C6.7134 44.4012 6.32502 44.2389 6.0476 43.8602C5.65922 43.3193 5.82567 42.5619 6.38051 42.1832L16.8668 35.2044C17.4217 34.8257 18.1984 34.988 18.5868 35.529C18.9752 36.07 18.8088 36.8274 18.2539 37.2061L7.7676 44.1848C7.60115 44.293 7.32372 44.4012 7.10179 44.4012Z" fill="url(#paint0_linear)"/>
<path d="M50.5454 15.3505C50.157 15.3505 49.7686 15.1882 49.4912 14.8095C49.1028 14.2685 49.2693 13.5111 49.8241 13.1324L61.2537 5.50448C61.8085 5.12579 62.5853 5.28808 62.9736 5.82907C63.362 6.37005 63.1956 7.12744 62.6407 7.50613L51.2112 15.1341C51.0447 15.2964 50.7673 15.3505 50.5454 15.3505Z" fill="url(#paint1_linear)"/>
<path d="M3.99484 38.8837C3.49548 38.8837 3.05163 38.6132 2.82969 38.1263C2.55228 37.5312 2.82968 36.7738 3.49548 36.5033L15.3135 31.5262C15.9238 31.2558 16.7006 31.5262 16.978 32.1754C17.2554 32.7705 16.978 33.5279 16.3122 33.7984L4.4942 38.7755C4.32775 38.8296 4.16129 38.8837 3.99484 38.8837Z" fill="#00E3F1"/>
<path d="M52.5429 18.4882C52.0436 18.4882 51.5997 18.2177 51.3778 17.7308C51.1004 17.1357 51.3778 16.3783 52.0436 16.1078L64.5829 10.8602C65.1932 10.5897 65.9699 10.8602 66.2474 11.5094C66.5248 12.1045 66.2473 12.8619 65.5815 13.1324L53.0423 18.38C52.8758 18.4882 52.7094 18.4882 52.5429 18.4882Z" fill="#00E3F1"/>
<path d="M1.99744 32.7704C1.44261 32.7704 0.887768 32.3917 0.776801 31.7966C0.61035 31.1474 1.05422 30.4982 1.72003 30.3359L14.4812 27.6851C15.147 27.5228 15.8128 27.9556 15.9793 28.6048C16.1457 29.254 15.7019 29.9032 15.0361 30.0654L2.27486 32.7163C2.16389 32.7704 2.05293 32.7704 1.99744 32.7704Z" fill="url(#paint2_linear)"/>
<path d="M53.8744 22.0586C53.3196 22.0586 52.7647 21.6799 52.6538 21.0848C52.4873 20.4357 52.9312 19.7865 53.597 19.6242L66.8021 16.9192C67.4679 16.7569 68.1337 17.1897 68.3001 17.8389C68.4666 18.4881 68.0227 19.1373 67.3569 19.2996L54.1518 22.0045C54.0408 22.0586 53.9854 22.0586 53.8744 22.0586Z" fill="url(#paint3_linear)"/>
<path d="M67.0795 32.7167C66.9685 32.7167 66.913 32.7167 66.8021 32.7167L53.9854 30.12C53.3196 29.9577 52.8758 29.3085 52.9867 28.6593C53.1532 28.0101 53.819 27.5773 54.4848 27.6855L67.3014 30.2823C67.9672 30.4446 68.4111 31.0937 68.3001 31.7429C68.1892 32.338 67.6898 32.7167 67.0795 32.7167Z" fill="url(#paint4_linear)"/>
<path d="M15.2025 22.1124C15.0915 22.1124 15.036 22.1124 14.9251 22.1124L1.72003 19.4075C1.05422 19.2452 0.61035 18.596 0.776801 17.9468C0.943251 17.2976 1.60906 16.8648 2.27486 17.0271L15.4799 19.7321C16.1457 19.8944 16.5896 20.5436 16.4231 21.1928C16.2567 21.7338 15.7573 22.1124 15.2025 22.1124Z" fill="url(#paint5_linear)"/>
<path d="M65.1932 38.7208C65.0268 38.7208 64.8603 38.6667 64.6939 38.6126L52.8204 33.6896C52.21 33.4191 51.8771 32.7158 52.1546 32.0667C52.432 31.4716 53.1533 31.147 53.8191 31.4175L65.6926 36.3405C66.3029 36.611 66.6358 37.3142 66.3584 37.9634C66.1364 38.4503 65.6371 38.7208 65.1932 38.7208Z" fill="#00E3F1"/>
<path d="M16.4787 18.5969C16.3122 18.5969 16.1458 18.5428 15.9793 18.4887L3.38458 13.2952C2.77426 13.0247 2.44135 12.3214 2.71877 11.6723C2.99619 11.0231 3.71747 10.7526 4.38327 11.0231L16.9781 16.2166C17.5884 16.487 17.9213 17.1903 17.6438 17.8395C17.4219 18.3264 16.978 18.5969 16.4787 18.5969Z" fill="#00E3F1"/>
<path d="M18.5313 15.3503C18.3094 15.3503 18.032 15.2962 17.8101 15.1339L6.38051 7.56009C5.82567 7.1814 5.65922 6.42402 6.0476 5.88303C6.43599 5.34204 7.21276 5.17974 7.7676 5.55844L19.1972 13.1323C19.752 13.511 19.9184 14.2684 19.53 14.8093C19.3081 15.188 18.9197 15.3503 18.5313 15.3503Z" fill="url(#paint6_linear)"/>
<path d="M61.9751 44.3473C61.7532 44.3473 61.4758 44.2932 61.2538 44.1309L50.7675 37.1521C50.2126 36.7734 50.0462 36.0161 50.4346 35.4751C50.823 34.9341 51.5997 34.7718 52.1546 35.1505L62.6409 42.1292C63.1958 42.5079 63.3622 43.2653 62.9738 43.8063C62.8074 44.1309 62.419 44.3473 61.9751 44.3473Z" fill="url(#paint7_linear)"/>
<path d="M57.9801 48.9459C57.6471 48.9459 57.3142 48.8377 57.0923 48.5672L9.48755 2.09633C8.9882 1.60944 8.9882 0.852056 9.48755 0.365167C9.9869 -0.121722 10.7637 -0.121722 11.263 0.365167L58.8678 46.836C59.3671 47.3229 59.3671 48.0803 58.8678 48.5672C58.6459 48.8377 58.313 48.9459 57.9801 48.9459Z" fill="#00E3F1"/>
<defs>
<linearGradient id="paint0_linear" x1="18.5" y1="36" x2="7" y2="44" gradientUnits="userSpaceOnUse">
<stop stop-color="#00C8F3" stop-opacity="0.01"/>
<stop offset="1" stop-color="#00E3F1"/>
</linearGradient>
<linearGradient id="paint1_linear" x1="52.2401" y1="12.7329" x2="62.6953" y2="5.43472" gradientUnits="userSpaceOnUse">
<stop stop-color="#00C8F3" stop-opacity="0.01"/>
<stop offset="1" stop-color="#00E3F1"/>
</linearGradient>
<linearGradient id="paint2_linear" x1="16" y1="29" x2="1" y2="32" gradientUnits="userSpaceOnUse">
<stop stop-color="#00C8F3" stop-opacity="0.01"/>
<stop offset="1" stop-color="#00E3F1"/>
</linearGradient>
<linearGradient id="paint3_linear" x1="53" y1="21" x2="67.5" y2="17.5" gradientUnits="userSpaceOnUse">
<stop stop-color="#00C8F3" stop-opacity="0.01"/>
<stop offset="1" stop-color="#00E3F1"/>
</linearGradient>
<linearGradient id="paint4_linear" x1="53.5" y1="28" x2="68" y2="32" gradientUnits="userSpaceOnUse">
<stop stop-color="#00C8F3" stop-opacity="0.01"/>
<stop offset="1" stop-color="#00E3F1"/>
</linearGradient>
<linearGradient id="paint5_linear" x1="15.5" y1="22" x2="1.5" y2="18" gradientUnits="userSpaceOnUse">
<stop stop-color="#00C8F3" stop-opacity="0.01"/>
<stop offset="1" stop-color="#00E3F1"/>
</linearGradient>
<linearGradient id="paint6_linear" x1="19" y1="15.5" x2="6" y2="6.5" gradientUnits="userSpaceOnUse">
<stop stop-color="#00C8F3" stop-opacity="0.01"/>
<stop offset="1" stop-color="#00E3F1"/>
</linearGradient>
<linearGradient id="paint7_linear" x1="50.794" y1="35.0828" x2="60.5958" y2="41.9176" gradientUnits="userSpaceOnUse">
<stop stop-color="#00C8F3" stop-opacity="0.01"/>
<stop offset="1" stop-color="#00E3F1"/>
</linearGradient>
</defs>
</svg>
