<svg width="159" height="33" viewBox="0 0 159 33" fill="none" xmlns="http://www.w3.org/2000/svg">
<g id="Group">
<path id="Vector" d="M19.0326 12.4775L12.4837 32.9999H0L6.54893 12.4775H19.0326Z" fill="#1D1D29"/>
<path id="Vector_2" d="M56.568 0L50.0191 20.5224H37.5354L44.0843 0H56.568Z" fill="#1D1D29"/>
<path id="Vector_3" d="M56.7333 33H39.6645C36.2622 33 32.9992 31.6162 30.5934 29.153L2.18018 0.0623889L2.24272 0H19.188C22.5903 0 25.8533 1.38379 28.2591 3.84696L56.7333 33Z" fill="#1D1D29"/>
<path id="Vector_4" d="M89.6939 23.9305L79.4061 9.56022V23.9305H78.0098V7.20313H79.4308L89.6693 21.3728V7.20313H91.0656V23.9305H89.6939V23.9305Z" fill="#1D1D29"/>
<path id="Vector_5" d="M106.79 7.20117H105.049L98.3599 23.9275H99.9816L101.597 19.8186L102.064 18.5136L105.907 8.73232L109.775 18.5136H103.055V19.8186H110.242L111.857 23.9275H113.479L106.79 7.20117Z" fill="#1D1D29"/>
<path id="Vector_6" d="M123.729 23.9305V8.50722H118.388V7.20313H130.489V8.50722H125.149V23.9305H123.729Z" fill="#1D1D29"/>
<path id="Vector_7" d="M138.277 23.9305V7.20313H139.673V23.9305H138.277V23.9305Z" fill="#1D1D29"/>
<path id="Vector_8" d="M148.639 7.20117V13.6617H150.033V8.50622H159V7.20117H148.639ZM148.639 14.7019V23.9275H150.033V16.0069H158.83V14.7019H148.639Z" fill="#1D1D29"/>
</g>
</svg>
