<svg width="207" height="43" viewBox="0 0 207 43" fill="none" xmlns="http://www.w3.org/2000/svg">
<path d="M24.7783 16.2588L16.2524 43.0001H0L8.52596 16.2588H24.7783Z" fill="#1CDEED"/>
<path d="M73.6453 0L65.1193 26.7413H48.8669L57.3929 0H73.6453Z" fill="#1CDEED"/>
<path d="M73.8604 43H51.6388C47.2094 43 42.9614 41.1969 39.8293 37.9873L2.8385 0.0812946L2.91992 0H24.9808C29.4102 0 33.6582 1.80312 36.7903 5.0127L73.8604 43Z" fill="#1CDEED"/>
<path d="M116.771 31.182L103.378 12.4571V31.182H101.56V9.38574H103.41L116.739 27.8493V9.38574H118.557V31.182H116.771V31.182Z" fill="white"/>
<path d="M139.029 9.38379H136.761L128.053 31.1788H130.165L132.268 25.8247L132.876 24.1242L137.879 11.3789L142.914 24.1242H134.165V25.8247H143.522L145.625 31.1788H147.737L139.029 9.38379Z" fill="white"/>
<path d="M161.081 31.182V11.085H154.128V9.38574H169.882V11.085H162.93V31.182H161.081Z" fill="white"/>
<path d="M180.021 31.182V9.38574H181.839V31.182H180.021V31.182Z" fill="white"/>
<path d="M193.511 9.38379V17.8021H195.326V11.0843H207V9.38379H193.511ZM193.511 19.1574V31.1788H195.326V20.8579H206.778V19.1574H193.511Z" fill="white"/>
</svg>
