<svg width="43" height="42" viewBox="0 0 43 42" fill="none" xmlns="http://www.w3.org/2000/svg">
<path fill-rule="evenodd" clip-rule="evenodd" d="M0 42H14.4375V40.6875H0V42Z" fill="#00E3F1"/>
<path fill-rule="evenodd" clip-rule="evenodd" d="M41.6069 42H42.9194V40.6875H41.6069V42ZM38.9819 42H40.2951V40.6875H38.9819V42ZM36.3569 42H37.6694V40.6875H36.3569V42ZM33.7319 42H35.0451V40.6875H33.7319V42ZM31.1069 42H32.4194V40.6875H31.1069V42ZM28.4825 42H29.795V40.6875H28.4825V42ZM25.8569 42H27.1694V40.6875H25.8569V42ZM23.2325 42H24.545V40.6875H23.2325V42ZM20.6069 42H21.9194V40.6875H20.6069V42Z" fill="#00E3F1"/>
<path fill-rule="evenodd" clip-rule="evenodd" d="M17.9821 39.7222V32.1562H19.2946V37.7147L23.2321 35.992V32.1562H24.5446V36.8511L17.9821 39.7222Z" fill="#00E3F1"/>
<path fill-rule="evenodd" clip-rule="evenodd" d="M10.7632 17.0625H31.7632V15.75H10.7632V17.0625Z" fill="#00E3F1"/>
<path fill-rule="evenodd" clip-rule="evenodd" d="M15.1747 35.5956L9.22314 29.6447L10.1511 28.7168L16.1026 34.6677L15.1747 35.5956Z" fill="#00E3F1"/>
<path fill-rule="evenodd" clip-rule="evenodd" d="M14.4451 38.2256L6.35156 35.9163L6.71119 34.6543L14.8047 36.9636L14.4451 38.2256Z" fill="#00E3F1"/>
<path fill-rule="evenodd" clip-rule="evenodd" d="M31.1071 0V19.4768L24.5446 28.665V31.5H17.9821V28.665L11.4196 19.4768V0H10.1071V19.8975L16.6696 29.0857V32.8125H25.8571V29.0857L32.4196 19.8975V0H31.1071Z" fill="#00E3F1"/>
</svg>
