<svg width="42" height="46" viewBox="0 0 42 46" fill="none" xmlns="http://www.w3.org/2000/svg">
<path fill-rule="evenodd" clip-rule="evenodd" d="M19.2072 34.1387L21.7337 38.6976L24.2595 34.1387H19.2072ZM21.7337 41.5736L16.8409 32.7451H26.625L21.7337 41.5736Z" fill="#00E3F1"/>
<path fill-rule="evenodd" clip-rule="evenodd" d="M16.932 2.09375C12.3564 2.1732 8.0199 4.45578 5.39302 8.23893C2.76684 12.0214 2.14653 16.8793 3.67499 21.1879L16.932 2.09375ZM3.38857 24.045L2.87909 22.9334C0.578393 17.9096 1.10251 11.9749 4.24864 7.4439C7.39336 2.9143 12.7719 0.338993 18.2891 0.73766L19.5102 0.824781L3.38857 24.045Z" fill="#00E3F1"/>
<path fill-rule="evenodd" clip-rule="evenodd" d="M2.56573 14.5513L2.14197 13.2236L9.29148 10.9389L8.93394 3.44512L10.3265 3.37891L10.7356 11.9412L2.56573 14.5513Z" fill="#00E3F1"/>
<path fill-rule="evenodd" clip-rule="evenodd" d="M18.7992 20.0445L10.0898 14.0261L10.8823 12.8789L19.5916 18.8972L18.7992 20.0445Z" fill="#00E3F1"/>
<path fill-rule="evenodd" clip-rule="evenodd" d="M40.4242 34.9897L26.0269 25.0398L26.8194 23.8933L39.0303 32.3322V30.7152L24.4567 20.6175L25.2505 19.4717L40.4242 29.9848V34.9897Z" fill="#00E3F1"/>
<path fill-rule="evenodd" clip-rule="evenodd" d="M19.8367 17.4165L11.662 11.7523L12.4551 10.6064L20.6306 16.2707L19.8367 17.4165Z" fill="#00E3F1"/>
<mask id="mask0" mask-type="alpha" maskUnits="userSpaceOnUse" x="0" y="0" width="42" height="46">
<path fill-rule="evenodd" clip-rule="evenodd" d="M0 45.3723H41.959V0.697266H0V45.3723Z" fill="white"/>
</mask>
<g mask="url(#mask0)">
<path fill-rule="evenodd" clip-rule="evenodd" d="M2.86877 42.619H4.26271V24.7041H2.86877V42.619Z" fill="#00E3F1"/>
<path fill-rule="evenodd" clip-rule="evenodd" d="M6.9697 45.3187H0V41.0498H1.39394V43.9248H5.57576V41.0498H6.9697V45.3187Z" fill="#00E3F1"/>
<path fill-rule="evenodd" clip-rule="evenodd" d="M39.0303 38.4072H40.4242V35.5322H39.0303V38.4072Z" fill="#00E3F1"/>
<path fill-rule="evenodd" clip-rule="evenodd" d="M39.0303 43.9665H40.565V41.1201H39.0303V43.9665ZM37.6364 45.3609H41.959V39.7266H37.6364V45.3609Z" fill="#00E3F1"/>
<path fill-rule="evenodd" clip-rule="evenodd" d="M11.6991 43.9666H11.8845L19.7672 25.1359H23.6995L31.5774 43.9548L31.7795 43.9499L23.5316 18.3802C23.1496 17.5347 22.3613 17.2532 21.7557 17.265C21.1486 17.2803 20.3785 17.6044 20.0397 18.4673L11.6991 43.9666ZM30.6594 45.3726L22.7718 26.53H20.6948L12.8121 45.3607H9.77612L18.728 17.9956C19.234 16.7048 20.3749 15.9054 21.7208 15.8719C23.0722 15.8169 24.2466 16.5787 24.8014 17.8053L24.8836 17.9991L33.678 45.2952L30.6594 45.3726Z" fill="#00E3F1"/>
<path fill-rule="evenodd" clip-rule="evenodd" d="M21.0366 20.2999H22.4306V19.0391H21.0366V20.2999Z" fill="#00E3F1"/>
<path fill-rule="evenodd" clip-rule="evenodd" d="M13.7268 41.7475H29.8407V40.3535H13.7268V41.7475Z" fill="#00E3F1"/>
<path fill-rule="evenodd" clip-rule="evenodd" d="M18.0139 23.1176H25.576V21.7236H18.0139V23.1176Z" fill="#00E3F1"/>
</g>
</svg>
