<svg width="43" height="43" viewBox="0 0 43 43" fill="none" xmlns="http://www.w3.org/2000/svg">
<mask id="mask0" mask-type="alpha" maskUnits="userSpaceOnUse" x="0" y="9" width="32" height="34">
<path fill-rule="evenodd" clip-rule="evenodd" d="M15.7313 42.808H0V9.66797L31.4626 9.66797V42.808H15.7313Z" fill="white"/>
</mask>
<g mask="url(#mask0)">
<path fill-rule="evenodd" clip-rule="evenodd" d="M23.0279 42.808H3.18413C1.42884 42.808 -0.000244141 41.3884 -0.000244141 39.6432V23.5837C-0.000244141 21.1807 0.993226 18.8422 2.72488 17.1668C4.19718 15.7425 5.0414 13.7537 5.0414 11.7118V9.66797H26.4209V11.7118C26.4209 13.753 27.2651 15.7418 28.7381 17.1675C30.4698 18.8422 31.4626 21.1807 31.4626 23.5837V33.4606H30.1118V23.5837C30.1118 21.5411 29.2676 19.553 27.796 18.1287C26.0637 16.452 25.0702 14.1128 25.0702 11.7118V11.0104H6.39214V11.7118C6.39214 14.1141 5.39867 16.4526 3.66702 18.1287C2.19471 19.553 1.3505 21.5411 1.3505 23.5837V39.6432C1.3505 40.648 2.1731 41.4656 3.18413 41.4656H23.0279V42.808Z" fill="#00E3F1"/>
</g>
<path fill-rule="evenodd" clip-rule="evenodd" d="M3.18933 9.76009H27.7892V2.67371C27.7892 1.93714 27.1877 1.33691 26.4494 1.33691H4.52916C3.79024 1.33691 3.18933 1.93714 3.18933 2.67371V9.76009ZM29.1291 11.0968H1.84949V2.6736C1.84949 1.19911 3.05131 0 4.52914 0H26.4494C27.9272 0 29.1291 1.19911 29.1291 2.6736V11.0968Z" fill="#00E3F1"/>
<mask id="mask1" mask-type="alpha" maskUnits="userSpaceOnUse" x="0" y="0" width="43" height="43">
<path fill-rule="evenodd" clip-rule="evenodd" d="M0 43H43V0H0V43Z" fill="white"/>
</mask>
<g mask="url(#mask1)">
<path fill-rule="evenodd" clip-rule="evenodd" d="M5.08606 10.6343H6.47316V4.16113H5.08606V10.6343Z" fill="#00E3F1"/>
<path fill-rule="evenodd" clip-rule="evenodd" d="M8.32263 10.6343H9.70973V4.16113H8.32263V10.6343Z" fill="#00E3F1"/>
<path fill-rule="evenodd" clip-rule="evenodd" d="M11.5591 10.6343H12.9462V4.16113H11.5591V10.6343Z" fill="#00E3F1"/>
<path fill-rule="evenodd" clip-rule="evenodd" d="M14.7957 10.6343H16.1828V4.16113H14.7957V10.6343Z" fill="#00E3F1"/>
<path fill-rule="evenodd" clip-rule="evenodd" d="M18.4946 10.6343H19.8817V4.16113H18.4946V10.6343Z" fill="#00E3F1"/>
<path fill-rule="evenodd" clip-rule="evenodd" d="M21.7312 10.6343H23.1183V4.16113H21.7312V10.6343Z" fill="#00E3F1"/>
<path fill-rule="evenodd" clip-rule="evenodd" d="M24.9678 10.6343H26.3549V4.16113H24.9678V10.6343Z" fill="#00E3F1"/>
<path fill-rule="evenodd" clip-rule="evenodd" d="M22.5591 37.9139H9.70972V23.1182H30.9785V33.4028H29.6436V24.4726H11.0446V36.5594H22.5591V37.9139Z" fill="#00E3F1"/>
<path fill-rule="evenodd" clip-rule="evenodd" d="M28.4534 36.4639C27.0097 36.4639 25.8347 37.6335 25.8347 39.0705C25.8347 40.5068 27.0097 41.6764 28.4534 41.6764H39.052C40.495 41.6764 41.6701 40.5068 41.6701 39.0705C41.6701 37.6335 40.495 36.4639 39.052 36.4639H28.4534ZM39.052 42.9999H28.4534C26.2762 42.9999 24.5054 41.2372 24.5054 39.0701C24.5054 36.9023 26.2762 35.1396 28.4534 35.1396H39.052C41.2291 35.1396 43 36.9023 43 39.0701C43 41.2372 41.2291 42.9999 39.052 42.9999Z" fill="#00E3F1"/>
<path fill-rule="evenodd" clip-rule="evenodd" d="M32.828 42.0757H34.2151V35.6025H32.828V42.0757Z" fill="#00E3F1"/>
<path fill-rule="evenodd" clip-rule="evenodd" d="M4.54439 38.8388H3.23657V23.7824C3.23657 22.2941 3.83817 20.845 4.88639 19.807C6.48193 18.2269 7.57331 16.1188 7.95912 13.8711L9.24732 14.0999C8.81444 16.6209 7.58966 18.9857 5.7986 20.7599C5.00148 21.5493 4.54439 22.6512 4.54439 23.7824V38.8388Z" fill="#00E3F1"/>
</g>
</svg>
