<svg width="45" height="45" viewBox="0 0 45 45" fill="none" xmlns="http://www.w3.org/2000/svg">
<path fill-rule="evenodd" clip-rule="evenodd" d="M13.5 35.8983H19.5722V34.5137H13.5V35.8983Z" fill="#00E3F1"/>
<path fill-rule="evenodd" clip-rule="evenodd" d="M21.6911 0L16.6158 10.3756V28.7294L7.57568 44.4233L10.5353 44.4648L19.8427 35.8989H25.1271L34.4061 44.4648L37.3871 44.4233L28.4585 28.7515L28.3837 10.3535L22.7885 0.353769L22.5295 0H21.6911ZM9.95166 43.0722L17.9997 29.1008V10.6958L22.193 2.125L27.0004 10.7179L27.0752 29.1202L35.0236 43.0715L34.9391 43.0729L25.6677 34.5146H19.302L10.0036 43.0729L9.95166 43.0722Z" fill="#00E3F1"/>
<path fill-rule="evenodd" clip-rule="evenodd" d="M25.3973 35.8983H31.5866V34.5137H25.3973V35.8983Z" fill="#00E3F1"/>
<path fill-rule="evenodd" clip-rule="evenodd" d="M31.2593 35.8165L16.9805 28.161L17.6347 26.9404L31.9135 34.596L31.2593 35.8165Z" fill="#00E3F1"/>
<path fill-rule="evenodd" clip-rule="evenodd" d="M13.8266 35.8169L13.1737 34.5957L27.4401 26.9609L28.0929 28.1822L13.8266 35.8169Z" fill="#00E3F1"/>
<path fill-rule="evenodd" clip-rule="evenodd" d="M8.36169 25.6131H9.75323V24.2285H8.36169V25.6131Z" fill="#00E3F1"/>
<path fill-rule="evenodd" clip-rule="evenodd" d="M17.3073 22.871L8.36548 22.8668V20.5947L17.2533 16.2324L28.4244 21.593L27.8256 22.8412L17.2602 17.7707L9.75009 21.4829L17.308 21.4863L17.3073 22.871Z" fill="#00E3F1"/>
<path fill-rule="evenodd" clip-rule="evenodd" d="M34.6542 25.6131H36.0464V24.2285H34.6542V25.6131Z" fill="#00E3F1"/>
<path fill-rule="evenodd" clip-rule="evenodd" d="M18.8408 22.1879L22.5287 24.0821L27.566 21.4866L34.6587 21.4831V21.4444L27.6844 17.7793L18.8408 22.1879ZM27.4503 28.1673L22.5294 25.639L17.6251 28.1666L16.9909 26.9357L21.016 24.8616L15.7745 22.1699L27.7002 16.2236L36.0432 20.608V22.867L27.9024 22.8712L24.0428 24.8595L28.0831 26.935L27.4503 28.1673Z" fill="#00E3F1"/>
<path fill-rule="evenodd" clip-rule="evenodd" d="M8.36169 15.3582H9.75323V13.9736H8.36169V15.3582Z" fill="#00E3F1"/>
<path fill-rule="evenodd" clip-rule="evenodd" d="M17.3073 12.6127L8.36548 12.6085V10.29L19.1046 6.22266L28.036 11.3187L27.3486 12.522L18.9848 7.7485L9.80617 11.2246L17.308 11.228L17.3073 12.6127Z" fill="#00E3F1"/>
<path fill-rule="evenodd" clip-rule="evenodd" d="M34.6542 15.3582H36.0464V13.9736H34.6542V15.3582Z" fill="#00E3F1"/>
<path fill-rule="evenodd" clip-rule="evenodd" d="M18.769 11.8645L22.4881 13.6846L27.533 11.2283L34.6201 11.2249L25.7669 7.75293L18.769 11.8645ZM17.5602 17.6235L16.9538 16.3788L20.9089 14.4528L15.8461 11.9757L25.645 6.21777L36.0435 10.2948V12.6085L27.8521 12.6126L24.0651 14.4562L27.9968 16.3795L27.3882 17.6235L22.4867 15.2247L17.5602 17.6235Z" fill="#00E3F1"/>
<mask id="mask0" mask-type="alpha" maskUnits="userSpaceOnUse" x="0" y="16" width="10" height="4">
<path fill-rule="evenodd" clip-rule="evenodd" d="M0 19.1442V16.8008L9.75365 16.8008V19.1442H0Z" fill="white"/>
</mask>
<g mask="url(#mask0)">
<path fill-rule="evenodd" clip-rule="evenodd" d="M4.36822 19.1442C2.92476 19.1442 1.48129 18.8251 0.207448 18.1854H-0.000244141V16.8008H0.546679L0.698294 16.8811C2.89291 18.0407 5.84352 18.0414 8.03814 16.8811L8.19045 16.8008H9.75368V18.1854H8.52968C7.25583 18.8251 5.81168 19.1442 4.36822 19.1442Z" fill="#00E3F1"/>
</g>
<path fill-rule="evenodd" clip-rule="evenodd" d="M4.36858 29.4375C2.92512 29.4375 1.48097 29.1183 0.207122 28.4793H0.00012207V27.0947H0.546353L0.697968 27.1743C2.89328 28.334 5.8432 28.3346 8.03851 27.1743L8.19012 27.0947H9.75335V28.4793H8.52935C7.25551 29.1183 5.81205 29.4375 4.36858 29.4375Z" fill="#00E3F1"/>
<path fill-rule="evenodd" clip-rule="evenodd" d="M40.0402 19.1442C38.5961 19.1442 37.1526 18.8251 35.8788 18.1854H34.6548V16.8008H36.218L36.3696 16.8811C38.5656 18.0407 41.5142 18.04 43.7102 16.8811L43.8618 16.8008H44.4087V18.1854H44.201C42.9272 18.8251 41.4837 19.1442 40.0402 19.1442Z" fill="#00E3F1"/>
<path fill-rule="evenodd" clip-rule="evenodd" d="M40.0402 29.4167C38.5961 29.4167 37.1526 29.0975 35.8788 28.4579H34.6548V27.0732H36.218L36.3696 27.1535C38.5656 28.3132 41.5142 28.3125 43.7102 27.1535L43.8618 27.0732H44.4087V28.4579H44.201C42.9272 29.0975 41.4837 29.4167 40.0402 29.4167Z" fill="#00E3F1"/>
</svg>
