<svg width="43" height="42" viewBox="0 0 43 42" fill="none" xmlns="http://www.w3.org/2000/svg">
<path fill-rule="evenodd" clip-rule="evenodd" d="M18.3783 35.4375H27.5658V30.1875H18.3783V35.4375ZM17.0658 36.75H28.8783V28.875H17.0658V36.75Z" fill="#00E3F1"/>
<path fill-rule="evenodd" clip-rule="evenodd" d="M21.0033 36.0938H22.3158V29.5312H21.0033V36.0938Z" fill="#00E3F1"/>
<path fill-rule="evenodd" clip-rule="evenodd" d="M39.3782 36.7503H30.8469V35.4378H38.0657V6.56348H22.3157V5.25098H39.3782V36.7503Z" fill="#00E3F1"/>
<path fill-rule="evenodd" clip-rule="evenodd" d="M18.3782 27.6029H17.0657V26.9059C17.0657 25.0973 18.5376 23.6247 20.3469 23.6247H27.5657C28.2895 23.6247 28.8782 23.036 28.8782 22.3122C28.8782 21.589 28.2895 20.9997 27.5657 20.9997H22.3157C20.868 20.9997 19.6907 19.823 19.6907 18.3747V15.749H21.0032V18.3747C21.0032 19.0985 21.5918 19.6872 22.3157 19.6872H27.5657C29.0134 19.6872 30.1907 20.8645 30.1907 22.3122C30.1907 23.7605 29.0134 24.9372 27.5657 24.9372H20.3469C19.2615 24.9372 18.3782 25.8205 18.3782 26.9059V27.6029Z" fill="#00E3F1"/>
<path fill-rule="evenodd" clip-rule="evenodd" d="M19.6907 14.4375H21.0032V11.8125H22.3157V6.5625H18.3782V11.8125H19.6907V14.4375ZM22.3157 15.75H18.3782V13.125H17.0657V5.25H23.6282V13.125H22.3157V15.75Z" fill="#00E3F1"/>
<path fill-rule="evenodd" clip-rule="evenodd" d="M42.0032 42H8.53638V40.6875H40.6907V1.3125H8.53638V0H42.0032V42Z" fill="#00E3F1"/>
<mask id="mask0" mask-type="alpha" maskUnits="userSpaceOnUse" x="0" y="0" width="43" height="42">
<path fill-rule="evenodd" clip-rule="evenodd" d="M0 42H42.0033V0H0V42Z" fill="white"/>
</mask>
<g mask="url(#mask0)">
<path fill-rule="evenodd" clip-rule="evenodd" d="M32.8152 36.0938H34.1277V5.90625H32.8152V36.0938Z" fill="#00E3F1"/>
<path fill-rule="evenodd" clip-rule="evenodd" d="M15.7532 36.75H10.5032V5.25H17.0657V6.5625H11.8157V35.4375H15.7532V36.75Z" fill="#00E3F1"/>
<path fill-rule="evenodd" clip-rule="evenodd" d="M8.53638 42H-0.00012207V0H8.53638V1.3125H1.31238V40.6875H8.53638V42Z" fill="#00E3F1"/>
<path fill-rule="evenodd" clip-rule="evenodd" d="M7.875 40.0312H9.1875V2.625H7.875V40.0312Z" fill="#00E3F1"/>
<path fill-rule="evenodd" clip-rule="evenodd" d="M11.1562 3.9375H12.4688V2.625H11.1562V3.9375ZM13.7812 3.9375H15.0938V2.625H13.7812V3.9375ZM16.4062 3.9375H17.7188V2.625H16.4062V3.9375ZM19.0312 3.9375H20.3438V2.625H19.0312V3.9375ZM21.6562 3.9375H22.9688V2.625H21.6562V3.9375ZM24.2812 3.9375H25.5938V2.625H24.2812V3.9375ZM26.9062 3.9375H28.2188V2.625H26.9062V3.9375ZM29.5312 3.9375H30.8438V2.625H29.5312V3.9375ZM32.1562 3.9375H33.4688V2.625H32.1562V3.9375ZM34.7812 3.9375H36.0938V2.625H34.7812V3.9375ZM37.4062 3.9375H38.7188V2.625H37.4062V3.9375Z" fill="#00E3F1"/>
<path fill-rule="evenodd" clip-rule="evenodd" d="M35.4402 39.375H39.3757V38.0625H35.4402V39.375Z" fill="#00E3F1"/>
<path fill-rule="evenodd" clip-rule="evenodd" d="M30.1869 39.375H34.1224V38.0625H30.1869V39.375Z" fill="#00E3F1"/>
<path fill-rule="evenodd" clip-rule="evenodd" d="M23.625 9.1875H36.7507V7.875H23.625V9.1875Z" fill="#00E3F1"/>
<path fill-rule="evenodd" clip-rule="evenodd" d="M11.1556 9.1875H17.0658V7.875H11.1556V9.1875Z" fill="#00E3F1"/>
</g>
</svg>
