<svg width="46" height="45" viewBox="0 0 46 45" fill="none" xmlns="http://www.w3.org/2000/svg">
<mask id="mask0" mask-type="alpha" maskUnits="userSpaceOnUse" x="15" y="36" width="10" height="10">
<path fill-rule="evenodd" clip-rule="evenodd" d="M15.4724 45.0003H24.1546V36.3184H15.4724V45.0003H15.4724Z" fill="white"/>
</mask>
<g mask="url(#mask0)">
<path fill-rule="evenodd" clip-rule="evenodd" d="M19.8135 37.7246C18.1956 37.7246 16.8787 39.0409 16.8787 40.6595C16.8787 42.278 18.1956 43.5943 19.8135 43.5943H22.7483V37.7246H19.8135ZM24.1546 45.0005H19.8135C17.4201 45.0005 15.4724 43.0529 15.4724 40.6595C15.4724 38.266 17.4201 36.3184 19.8135 36.3184H24.1546V45.0005Z" fill="#00E3F1"/>
</g>
<path fill-rule="evenodd" clip-rule="evenodd" d="M23.452 39.5869H26.7187V38.1807H23.452V39.5869Z" fill="#00E3F1"/>
<path fill-rule="evenodd" clip-rule="evenodd" d="M23.452 43.1377H26.7187V41.7314H23.452V43.1377Z" fill="#00E3F1"/>
<path fill-rule="evenodd" clip-rule="evenodd" d="M35.8594 15.4688C33.9209 15.4688 32.3438 17.0459 32.3438 18.9844C32.3438 20.9229 33.9209 22.5 35.8594 22.5C37.7979 22.5 39.375 20.9229 39.375 18.9844C39.375 17.0459 37.7979 15.4688 35.8594 15.4688ZM35.8594 23.9062C33.1453 23.9062 30.9375 21.6977 30.9375 18.9844C30.9375 16.271 33.1453 14.0625 35.8594 14.0625C38.5734 14.0625 40.7812 16.271 40.7812 18.9844C40.7812 21.6977 38.5734 23.9062 35.8594 23.9062Z" fill="#00E3F1"/>
<path fill-rule="evenodd" clip-rule="evenodd" d="M10.5469 15.4688C8.60836 15.4688 7.03125 17.0459 7.03125 18.9844C7.03125 20.9229 8.60836 22.5 10.5469 22.5C12.4854 22.5 14.0625 20.9229 14.0625 18.9844C14.0625 17.0459 12.4854 15.4688 10.5469 15.4688ZM10.5469 23.9062C7.83281 23.9062 5.625 21.6977 5.625 18.9844C5.625 16.271 7.83281 14.0625 10.5469 14.0625C13.2609 14.0625 15.4688 16.271 15.4688 18.9844C15.4688 21.6977 13.2609 23.9062 10.5469 23.9062Z" fill="#00E3F1"/>
<path fill-rule="evenodd" clip-rule="evenodd" d="M16.1719 41.4851H4.57031C2.05031 41.4851 0 39.4348 0 36.9141C0 34.3941 2.05031 32.3438 4.57031 32.3438H40.7812C42.3323 32.3438 43.5938 31.0823 43.5938 29.5312C43.5938 27.9802 42.3323 26.7188 40.7812 26.7188H28.8281C26.1141 26.7188 23.9062 24.5102 23.9062 21.7969V18.9844H25.3125V21.7969C25.3125 23.7354 26.8896 25.3125 28.8281 25.3125H40.7812C43.1079 25.3125 45 27.2046 45 29.5312C45 31.8579 43.1079 33.75 40.7812 33.75H4.57031C2.82586 33.75 1.40625 35.1696 1.40625 36.9141C1.40625 38.6585 2.82586 40.0788 4.57031 40.0788H16.1719V41.4851Z" fill="#00E3F1"/>
<path fill-rule="evenodd" clip-rule="evenodd" d="M16.5438 20.3916H29.0918V18.9854H16.5438V20.3916Z" fill="#00E3F1"/>
<path fill-rule="evenodd" clip-rule="evenodd" d="M44.655 20.3914H42.2777V18.9852H43.4519L43.7908 16.8301L45.1795 17.048L44.655 20.3914Z" fill="#00E3F1"/>
<path fill-rule="evenodd" clip-rule="evenodd" d="M2.86919 20.1291L0.988328 17.787C0.108015 16.4159 -0.159173 14.7248 0.254968 13.1484L1.56489 8.16539C2.8277 3.35742 7.18216 0 12.1532 0H21.7404C24.1057 0 26.2748 1.29164 27.4019 3.37148L29.3334 6.93773C29.7243 7.66055 30.4408 8.1675 31.2515 8.29688L37.593 9.30867L37.3708 10.6973L31.03 9.68484C29.7911 9.48797 28.6943 8.71172 28.0966 7.60781L26.1651 4.04156C25.2841 2.41664 23.5889 1.40625 21.7404 1.40625H12.1532C7.82059 1.40625 4.02583 4.33266 2.92473 8.52258L1.61481 13.5056C1.30333 14.6911 1.4995 15.9609 2.152 16.9966L3.96466 19.2473L2.86919 20.1291Z" fill="#00E3F1"/>
<path fill-rule="evenodd" clip-rule="evenodd" d="M40.3422 10.9434C40.454 11.3238 40.859 12.0613 41.6781 12.8805C42.4972 13.6996 43.2348 14.1046 43.6152 14.2164C43.5034 13.836 43.0984 13.0977 42.2793 12.2786C41.4608 11.4602 40.7233 11.0552 40.3422 10.9434ZM43.8191 15.6565C43.5196 15.6565 43.149 15.5742 42.692 15.3576C42.0486 15.0539 41.3357 14.5273 40.6839 13.8748C39.3254 12.5163 38.3544 10.7459 39.2488 9.85007C40.1453 8.9564 41.915 9.92741 43.2735 11.2844C43.926 11.9362 44.4526 12.6499 44.7571 13.294C45.2795 14.3972 45.0186 14.9991 44.7078 15.3091C44.5257 15.4912 44.2438 15.6565 43.8191 15.6565Z" fill="#00E3F1"/>
<path fill-rule="evenodd" clip-rule="evenodd" d="M14.9203 9.6709H27.4219V8.26465H14.9203V9.6709Z" fill="#00E3F1"/>
<path fill-rule="evenodd" clip-rule="evenodd" d="M19.9636 19.688H18.5573V11.2794C18.5573 10.392 17.8352 9.67062 16.9479 9.67062H13.9927C12.9401 9.67062 11.981 9.13555 11.4277 8.24047C10.8743 7.34469 10.8244 6.24781 11.2955 5.30633L13.7543 0.388672L15.0122 1.01727L12.5534 5.93492C12.3023 6.43766 12.3284 7.02266 12.6237 7.50078C12.919 7.97891 13.4309 8.26438 13.9927 8.26438H16.9479C18.6108 8.26438 19.9636 9.61719 19.9636 11.2794V19.688Z" fill="#00E3F1"/>
<path fill-rule="evenodd" clip-rule="evenodd" d="M3.26909 9.67102H2.08081V8.26477H3.26909C4.80823 8.26477 6.2419 7.3718 6.92042 5.99086L9.9094 0.550781L11.142 1.22789L8.16776 6.63914C7.26847 8.47008 5.3405 9.67102 3.26909 9.67102Z" fill="#00E3F1"/>
</svg>
