<svg width="43" height="43" viewBox="0 0 43 43" fill="none" xmlns="http://www.w3.org/2000/svg">
<path fill-rule="evenodd" clip-rule="evenodd" d="M16.5385 12.1281H15.2557V10.8294C15.2557 9.27848 14.0999 8.01621 12.6799 8.01621C11.2592 8.01621 10.1034 9.27848 10.1034 10.8294V12.1281H8.82056V10.8294C8.82056 8.50584 10.5523 6.61523 12.6799 6.61523C14.8074 6.61523 16.5385 8.50584 16.5385 10.8294V12.1281Z" fill="#00E3F1"/>
<mask id="mask0" mask-type="alpha" maskUnits="userSpaceOnUse" x="34" y="17" width="9" height="7">
<path fill-rule="evenodd" clip-rule="evenodd" d="M42.4159 17.7119V23.595H34.1891V17.7119H42.4159V17.7119Z" fill="white"/>
</mask>
<g mask="url(#mask0)">
<path fill-rule="evenodd" clip-rule="evenodd" d="M35.0112 23.595C34.7345 23.595 34.4584 23.5678 34.1891 23.5135L34.4611 22.2141C34.6409 22.2506 34.826 22.2685 35.0112 22.2685C36.5131 22.2685 37.7354 21.0733 37.7354 19.6049C37.7354 18.5609 38.6037 17.7119 39.6714 17.7119H42.4159V19.0384H39.6714C39.3519 19.0384 39.0921 19.2925 39.0921 19.6049C39.0921 21.8049 37.2613 23.595 35.0112 23.595Z" fill="#00E3F1"/>
</g>
<path fill-rule="evenodd" clip-rule="evenodd" d="M34.7308 11.5773H33.4002V9.67948C33.4002 7.22473 31.4581 5.22768 29.0715 5.22768C28.027 5.22768 27.019 5.6156 26.2326 6.31823L25.359 5.28652C26.3876 4.36633 27.7063 3.85938 29.0715 3.85938C32.1919 3.85938 34.7308 6.47011 34.7308 9.67948V11.5773Z" fill="#00E3F1"/>
<path fill-rule="evenodd" clip-rule="evenodd" d="M30.3206 11.5769C27.4762 11.5769 25.1622 9.2446 25.1622 6.37781C25.1622 3.60788 22.9268 1.35482 20.1779 1.35482C17.7967 1.35482 15.7394 3.06189 15.2857 5.41385C15.2823 5.43282 15.0646 6.51668 15.1439 7.83153L13.8024 7.91417C13.711 6.40965 13.9576 5.19708 13.9677 5.14628C14.5417 2.16771 17.1548 0 20.1779 0C23.6675 0 26.5064 2.8607 26.5064 6.37781C26.5064 8.49742 28.2176 10.2221 30.3206 10.2221V11.5769Z" fill="#00E3F1"/>
<mask id="mask1" mask-type="alpha" maskUnits="userSpaceOnUse" x="0" y="0" width="43" height="43">
<path fill-rule="evenodd" clip-rule="evenodd" d="M0 43H42.4487V0H0V43Z" fill="white"/>
</mask>
<g mask="url(#mask1)">
<path fill-rule="evenodd" clip-rule="evenodd" d="M32 12.128H41.3718V11.0254H32V12.128Z" fill="#00E3F1"/>
<path fill-rule="evenodd" clip-rule="evenodd" d="M26.8114 31.4232C24.7505 26.0548 23.7051 20.4909 23.7051 14.8848H25.0952C25.0952 20.3315 26.1114 25.7394 28.1153 30.9584L26.8114 31.4232Z" fill="#00E3F1"/>
<path fill-rule="evenodd" clip-rule="evenodd" d="M13.2898 42.9997H0L0.65353 41.9618C6.15897 33.2178 8.83514 24.4068 8.83514 15.0254V13.2305H20.9487V14.5836H10.184V15.0254C10.184 24.2979 7.64678 33.0189 2.43405 41.6466H13.2898V42.9997Z" fill="#00E3F1"/>
<path fill-rule="evenodd" clip-rule="evenodd" d="M25.9103 18.7432H27.2217C27.2217 20.7129 28.7357 22.3161 30.5965 22.3161C32.4574 22.3161 33.9707 20.7129 33.9707 18.7432H35.2821C35.2821 21.4787 33.1799 23.7047 30.5965 23.7047C28.0124 23.7047 25.9103 21.4787 25.9103 18.7432Z" fill="#00E3F1"/>
<path fill-rule="evenodd" clip-rule="evenodd" d="M28.1154 15.9869H23.1128C21.0074 15.9869 19.2949 14.3199 19.2949 12.2705V11.0254H20.6224V12.2705C20.6224 13.6073 21.7395 14.6947 23.1128 14.6947H28.1154V15.9869Z" fill="#00E3F1"/>
<path fill-rule="evenodd" clip-rule="evenodd" d="M31.9744 15.9873H39.6923V14.8848H31.9744V15.9873Z" fill="#00E3F1"/>
<path fill-rule="evenodd" clip-rule="evenodd" d="M9.37183 20.9483H24.2564V19.8457H9.37183V20.9483Z" fill="#00E3F1"/>
<path fill-rule="evenodd" clip-rule="evenodd" d="M12.9209 41.6212H41.1047V31.6992H12.9209V41.6212ZM11.5769 42.9998H42.4487V30.3203H11.5769V42.9998Z" fill="#00E3F1"/>
<path fill-rule="evenodd" clip-rule="evenodd" d="M39.6923 31.4229H38.3336V29.5216H32.7818V31.4229H31.4231V28.1152H39.6923V31.4229Z" fill="#00E3F1"/>
<path fill-rule="evenodd" clip-rule="evenodd" d="M36.9359 28.1158H38.0385V25.3594H36.9359V28.1158Z" fill="#00E3F1"/>
<path fill-rule="evenodd" clip-rule="evenodd" d="M14.3334 35.2823H15.655V34.1797H14.3334V35.2823ZM16.9766 35.2823H18.2982V34.1797H16.9766V35.2823ZM19.6198 35.2823H20.9413V34.1797H19.6198V35.2823ZM22.2629 35.2823H23.5845V34.1797H22.2629V35.2823ZM24.9061 35.2823H26.2277V34.1797H24.9061V35.2823ZM27.5493 35.2823H28.8709V34.1797H27.5493V35.2823ZM30.1925 35.2823H31.5141V34.1797H30.1925V35.2823ZM32.8357 35.2823H34.1573V34.1797H32.8357V35.2823ZM35.4789 35.2823H36.8005V34.1797H35.4789V35.2823ZM38.1221 35.2823H39.141V34.1797H38.1221V35.2823Z" fill="#00E3F1"/>
<path fill-rule="evenodd" clip-rule="evenodd" d="M39.141 42.4488H37.7004V39.9993H36.1713V42.4488H34.7307V38.5898H39.141V42.4488Z" fill="#00E3F1"/>
<path fill-rule="evenodd" clip-rule="evenodd" d="M25.9102 42.4484H24.5983V38.3037H17.8504V42.4484H16.5385V36.9355H25.9102V42.4484Z" fill="#00E3F1"/>
<path fill-rule="evenodd" clip-rule="evenodd" d="M17.641 40.2432H25.9102V39.1406H17.641V40.2432Z" fill="#00E3F1"/>
</g>
</svg>
