<svg width="22" height="19" viewBox="0 0 22 19" fill="none" xmlns="http://www.w3.org/2000/svg">
<path id="telegram" fill-rule="evenodd" clip-rule="evenodd" d="M5.41175 10.4097L0.385264 8.63231C-0.125234 8.45067 -0.129629 7.76708 0.379404 7.58153L21.0079 0.0405143C21.4452 -0.119642 21.8964 0.243639 21.8012 0.677233L18.0993 17.5542C18.012 17.9526 17.5191 18.1343 17.1712 17.894L12.1177 14.4175C11.8108 14.2046 11.3925 14.2163 11.0988 14.4429L8.29701 16.6089C7.97169 16.8608 7.4817 16.7202 7.35719 16.3393L5.41175 10.4097ZM16.8671 3.72801L7.04371 9.46239C6.66712 9.68309 6.48988 10.1147 6.61146 10.5171L7.67359 14.0542C7.74903 14.3042 8.13294 14.2788 8.16944 14.021L8.44569 12.0796C8.49769 11.7143 8.68153 11.3784 8.96644 11.1284L17.0736 3.98583C17.2252 3.85301 17.0437 3.62645 16.8671 3.72801Z" fill="white"/>
</svg>
