<svg width="23" height="18" viewBox="0 0 23 18" fill="none" xmlns="http://www.w3.org/2000/svg">
<path id="twitter" d="M22.2988 2.07212C21.4781 2.42376 20.5974 2.66223 19.6722 2.76869C20.6169 2.22168 21.3401 1.35403 21.6829 0.323341C20.7967 0.829914 19.8185 1.19775 18.7762 1.39715C17.9415 0.536236 16.7544 0 15.4376 0C12.9113 0 10.863 1.98053 10.863 4.42183C10.863 4.76807 10.9034 5.10624 10.9814 5.42962C7.18022 5.24501 3.80956 3.48411 1.55363 0.808353C1.15928 1.46046 0.934947 2.2203 0.934947 3.0314C0.934947 4.56599 1.74313 5.92002 2.96935 6.7122C2.21968 6.68796 1.51461 6.48856 0.897345 6.15712V6.21236C0.897345 8.35455 2.47469 10.1424 4.56619 10.5493C4.183 10.649 3.77892 10.7043 3.36089 10.7043C3.0655 10.7043 2.77985 10.676 2.49976 10.6221C3.08219 12.3803 4.77104 13.6589 6.77199 13.6939C5.20717 14.8795 3.23409 15.5842 1.09104 15.5842C0.721797 15.5842 0.358093 15.5626 0 15.5235C2.02464 16.7806 4.42828 17.5135 7.01167 17.5135C15.4265 17.5135 20.0262 10.7743 20.0262 4.92977L20.0108 4.35718C20.9095 3.73738 21.6871 2.95865 22.2988 2.07212Z" fill="white"/>
</svg>
