<svg width="31" height="30" viewBox="0 0 31 30" fill="none" xmlns="http://www.w3.org/2000/svg">
<g id="github-logo">
<path id="Shape" d="M28.9208 7.65801C27.5347 5.30216 25.6546 3.43702 23.28 2.06218C20.905 0.687277 18.3123 0 15.4999 0C12.6878 0 10.0942 0.687488 7.71971 2.06218C5.34487 3.43695 3.46485 5.30216 2.0788 7.65801C0.692956 10.0138 0 12.5863 0 15.3756C0 18.726 0.985393 21.7389 2.95667 24.4149C4.92774 27.091 7.47407 28.9429 10.5954 29.9705C10.9588 30.0374 11.2277 29.9904 11.4026 29.8305C11.5776 29.6705 11.665 29.4701 11.665 29.2302C11.665 29.1901 11.6615 28.8299 11.6548 28.1491C11.6479 27.4682 11.6446 26.8743 11.6446 26.3675L11.1804 26.4472C10.8844 26.501 10.511 26.5237 10.0603 26.5173C9.6097 26.5111 9.14196 26.4642 8.65767 26.3771C8.17317 26.2908 7.72254 26.0906 7.30541 25.7769C6.88849 25.4633 6.59252 25.0527 6.41756 24.5459L6.21575 24.0851C6.08123 23.7784 5.86945 23.4377 5.58012 23.0642C5.29079 22.6904 4.99822 22.437 4.70225 22.3035L4.56094 22.2032C4.46678 22.1365 4.37941 22.0561 4.29862 21.9627C4.21789 21.8694 4.15745 21.776 4.11709 21.6824C4.07666 21.5888 4.11016 21.512 4.21796 21.4518C4.32576 21.3916 4.52058 21.3623 4.80326 21.3623L5.20675 21.4221C5.47586 21.4757 5.80873 21.6355 6.20578 21.9026C6.60263 22.1694 6.92885 22.5164 7.18453 22.9433C7.49414 23.4907 7.86717 23.9078 8.30465 24.1948C8.74179 24.4818 9.18253 24.6251 9.62645 24.6251C10.0704 24.6251 10.4538 24.5917 10.7768 24.5253C11.0995 24.4586 11.4023 24.3582 11.685 24.2248C11.8061 23.3302 12.1357 22.6429 12.6737 22.1625C11.9069 22.0826 11.2175 21.9622 10.6051 21.8021C9.99311 21.6418 9.36066 21.3816 8.70821 21.0209C8.05541 20.6607 7.51387 20.2134 7.08345 19.6797C6.65296 19.1458 6.29966 18.4449 6.02404 17.5775C5.74829 16.7098 5.61038 15.7089 5.61038 14.5744C5.61038 12.9591 6.14195 11.5846 7.20489 10.45C6.70696 9.23558 6.75397 7.8742 7.34605 6.36599C7.73625 6.24573 8.3149 6.33598 9.08173 6.63618C9.84869 6.93652 10.4102 7.1938 10.7669 7.40711C11.1236 7.62036 11.4094 7.80107 11.6247 7.94762C12.8763 7.60072 14.1678 7.42724 15.4997 7.42724C16.8316 7.42724 18.1234 7.60072 19.3751 7.94762L20.1419 7.46735C20.6664 7.14689 21.2857 6.85321 21.9984 6.58625C22.7115 6.31943 23.2568 6.24594 23.6337 6.3662C24.2389 7.87448 24.2928 9.23579 23.7948 10.4502C24.8576 11.5848 25.3894 12.9597 25.3894 14.5746C25.3894 15.7091 25.251 16.7132 24.9757 17.5875C24.7 18.462 24.3437 19.1623 23.9065 19.6898C23.4689 20.2171 22.9239 20.661 22.2714 21.0211C21.6188 21.3815 20.9862 21.6417 20.3742 21.802C19.7619 21.9623 19.0724 22.0828 18.3056 22.1629C19.005 22.7633 19.3548 23.711 19.3548 25.0056V29.2296C19.3548 29.4696 19.4389 29.6699 19.6073 29.83C19.7754 29.9898 20.041 30.0368 20.4043 29.9699C23.5261 28.9424 26.0725 27.0905 28.0435 24.4143C30.0143 21.7383 31 18.7255 31 15.375C30.9993 12.5861 30.306 10.0138 28.9208 7.65801Z" fill="white"/>
</g>
</svg>
