<svg width="10" height="18" viewBox="0 0 10 18" fill="none" xmlns="http://www.w3.org/2000/svg">
<path d="M9.33003 0.00354276L7.00461 0C4.39208 0 2.70375 1.64473 2.70375 4.19037V6.12242H0.36565C0.16361 6.12242 0 6.27794 0 6.46978V9.2691C0 9.46094 0.163796 9.61629 0.36565 9.61629H2.70375V16.6798C2.70375 16.8717 2.86736 17.027 3.0694 17.027H6.11997C6.322 17.027 6.48561 16.8715 6.48561 16.6798V9.61629H9.2194C9.42144 9.61629 9.58505 9.46094 9.58505 9.2691L9.58617 6.46978C9.58617 6.37767 9.54756 6.28946 9.47909 6.22427C9.41062 6.15909 9.31735 6.12242 9.22034 6.12242H6.48561V4.4846C6.48561 3.6974 6.68318 3.29778 7.76315 3.29778L9.32966 3.29725C9.53151 3.29725 9.69512 3.14172 9.69512 2.95005V0.350733C9.69512 0.159247 9.5317 0.00389703 9.33003 0.00354276Z" fill="#ffffff"/>
</svg>
