<svg width="258" height="202" fill="none" xmlns="http://www.w3.org/2000/svg"><path opacity=".65" d="M252.911 123.053l-3.9-1.1c2.9-7.6 5.9-18.7 3.1-27.3-1.5-4.7-4.5-8.1-9.1-10.4-22.7-11-89.7 9.3-109.2 15.6-3.3 1.1-5.3 1.7-5.4 1.8l-1.3-3.6-.1-.2c3.6-1.3 89.6-30.8 117.6-17.2 5.6 2.7 9.4 7 11.2 12.8 3.2 9.7.1 21.5-2.9 29.6z" fill="#00CBD8"/><path opacity=".99" d="M184.911 179.554l3.2.9v-63l4 1.1v63l3.2.9-5.6 9.6-4.8-12.5zm15.1-10.4l3.2.9v-48.7l4 1.1v48.7l3.2.9-5.5 9.7-4.9-12.6zm12.6-14.601l3.2.9v-30.7l4 1.1v30.7l3.3.9-5.6 9.7-4.9-12.6zm-42.7 7.101l3.2.9v-49.2l4 1v49.3l3.2.9-5.6 9.7-4.8-12.6zm-16.4-23.1l3.2.9v-30.6l4 1.1v30.6l3.2.9-5.5 9.6-4.9-12.5zm-12.9-25l3.2.9v-9.1l4 1.1v9.1l3.3.9-5.6 9.6-4.9-12.5z" fill="#00CBD8"/><path d="M67.711 85.454l-3.7-1.1-40.4 21.8-3.3-.9-3 6.6 14-3.6-3.9-1.1 40.3-21.7zm-42.9 10.899l3.9 1.1-14 3.6 3-6.6 3.3.9 29.8-16.1 3.4.9.4.1-29.8 16.1zm28.3 7.601l3.9 1-14 3.7 3-6.7 3.3.9 29.7-15.9.5.1 3.2.9-29.6 16zm-28.7-17.2l3.9 1.1-14 3.6 3-6.6 3.3.9 18.2-9.8 2.7.8 1.1.2-18.2 9.8zm55.8 15.399l3.9 1.1-13.9 3.7 2.9-6.7 3.3.9 18.4-9.9 1.1.3 2.7.7-18.4 9.9zm23.9-1l3.8 1-13.9 3.7 3-6.7 3.3.9 9.2-4.9 3.8 1-9.2 5zm-83.7-23l3.9 1.1-14 3.6 3-6.6 3.3.9 8.9-4.8 2.4.6 1.4.4-8.9 4.8z" fill="#009CA0"/><path opacity=".65" d="M130.111 101.853c-.2.1-.8.3-1.7.6-10.3 3.5-61.6 20.2-95.1 20.2-8.3 0-15.6-1-20.8-3.6-5.6-2.7-9.4-7-11.2-12.8-4.3-13.3 3.1-30.7 6.1-36.8l1.1-2.2 1.6.9 1.9 1s-.3.5-.7 1.4c-2.5 5-10.2 22.2-6.2 34.6 1.5 4.7 4.5 8.1 9.1 10.4 21.9 10.7 85.3-8 107.1-14.9 1.8-.6 3.3-1 4.4-1.4 1.1-.4 1.9-.6 2.4-.8.3-.1.5-.2.6-.2l.1.4.9 2.6.4.6z" fill="#00CBD8"/><path d="M187.411 116.454l3.8 1 40.3-21.8 3.3.9 3-6.6-13.9 3.7 3.8 1-40.3 21.8zm45-13.101l-3.9-1 14-3.7-3 6.7-3.3-.9-29.8 16-3.4-.9-.4-.1 29.8-16.1zm-28.3-7.599l-3.9-1 14-3.7-3 6.7-3.3-.9-29.7 16-.5-.2-3.2-.9 29.6-16zm30.2 18.199l-3.9-1.1 14-3.6-3 6.6-3.3-.9-18.2 9.8-2.7-.8-1.1-.2 18.2-9.8zm-57.3-16.4l-3.9-1.1 13.9-3.6-2.9 6.6-3.3-.9-18.4 9.901-1.1-.3-2.7-.7 18.4-9.9zm-23.3 1.101l-3.9-1.1 14-3.6-3 6.6-3.3-.9-9.2 5-3.8-1.1 9.2-4.9z" fill="#009CA0"/><path d="M235.611 150.054c-11.3 21.6-28.6 50.2-48 47.3-28.4-4.2-51.4-76.6-56.5-94.1l102.9 28.1 1.1-3.8-101.3-27.7-3.9-1.1c-4.2-14.6-28.2-93.8-60.3-98.5-25.4-3.8-45.4 36-57.3 59.7-1.1 2.2-2.1 4.2-3 5.9-.3.5-.5 1-.7 1.4l-1.1 2.2 3.9 1.1 110 30 5.2 1.4c3.5 12.5 27.8 94.4 60.5 99.3 1.1.2 2.3.3 3.4.3 20.7 0 37.6-28.2 49.1-50.5l-4-1zm-222.4-83.1c.8-1.6 1.7-3.3 2.6-5.2 10.7-21.3 30.6-60.9 53.2-57.6 28 4.2 50.8 74.7 56.3 93.4l-112.1-30.6z" fill="#00CBD8"/><path opacity=".99" d="M71.511 21.953l-3.2-.9v63l-4-1.1v-63l-3.2-.9 5.6-9.7 4.8 12.6zm-14.1 10.3l-3.2-.8v48.7l-4-1.1v-48.7l-3.3-.9 5.6-9.7 4.9 12.5zm-12.6 14.6l-3.3-.8v30.7l-4-1.1v-30.7l-3.2-.9 5.6-9.7 4.9 12.5zm-13.7 17.9l-3.2-.9v9.1l-4-1.1v-9.1l-3.2-.9 5.6-9.6 4.8 12.5zm55.7-25l-3.3-.8v49.2l-4-1.1v-49.2l-3.2-.9 5.6-9.7 4.9 12.5zm16.3 23.2l-3.2-.9v30.6l-4-1.1v-30.6l-3.2-.9 5.6-9.7 4.8 12.6zm12.9 25.001l-3.2-.9v9.1l-4-1.1v-9.1l-3.2-.9 5.6-9.7 4.8 12.6z" fill="#00CBD8"/></svg>