<svg width="214" height="214" fill="none" xmlns="http://www.w3.org/2000/svg"><path fill-rule="evenodd" clip-rule="evenodd" d="M107 3.22c-11.746 0-21.301 9.556-21.301 21.301s9.555 21.3 21.301 21.3c11.745 0 21.301-9.555 21.301-21.3 0-11.745-9.556-21.3-21.301-21.3zm0 45.822c-13.52 0-24.52-11-24.52-24.52C82.48 11 93.48 0 107 0c13.521 0 24.521 11 24.521 24.521s-11 24.521-24.521 24.521zM189.479 85.7c-11.745 0-21.301 9.555-21.301 21.3 0 11.745 9.556 21.301 21.301 21.301 11.746 0 21.301-9.556 21.301-21.301s-9.555-21.3-21.301-21.3zm0 45.821c-13.52 0-24.521-11-24.521-24.521s11.001-24.52 24.521-24.52C203 82.48 214 93.478 214 107c0 13.521-11 24.521-24.521 24.521zM24.52 85.7c-11.745 0-21.3 9.555-21.3 21.3 0 11.745 9.555 21.301 21.3 21.301 11.746 0 21.302-9.556 21.302-21.301s-9.556-21.3-21.301-21.3zm0 45.821C11 131.521 0 120.521 0 107s11-24.52 24.52-24.52c13.521 0 24.522 10.999 24.522 24.52 0 13.521-11 24.521-24.521 24.521zM107 168.178c-11.746 0-21.301 9.556-21.301 21.301 0 11.746 9.555 21.302 21.301 21.302 11.745 0 21.301-9.556 21.301-21.302 0-11.745-9.556-21.301-21.301-21.301zM107 214c-13.52 0-24.52-11-24.52-24.521 0-13.52 11-24.521 24.52-24.521 13.521 0 24.521 11.001 24.521 24.521C131.521 203 120.521 214 107 214z" fill="#00E4F2"/><mask id="a" maskUnits="userSpaceOnUse" x="0" y="0" width="214" height="215"><path fill-rule="evenodd" clip-rule="evenodd" d="M0 107v107h214V0H0v107z" fill="#fff"/></mask><g mask="url(#a)"><path fill-rule="evenodd" clip-rule="evenodd" d="M24.52 3.22c-11.745 0-21.3 9.556-21.3 21.301s9.555 21.3 21.3 21.3c11.746 0 21.302-9.555 21.302-21.3 0-11.745-9.556-21.3-21.301-21.3zm164.959 0c-11.745 0-21.301 9.556-21.301 21.301s9.556 21.3 21.301 21.3c11.746 0 21.301-9.555 21.301-21.3 0-11.745-9.555-21.3-21.301-21.3zM107 67.37c-21.852 0-39.63 17.778-39.63 39.63 0 21.852 17.778 39.63 39.63 39.63 21.852 0 39.629-17.778 39.629-39.63 0-21.852-17.777-39.63-39.629-39.63zM24.52 168.18c-11.745 0-21.3 9.555-21.3 21.301 0 11.745 9.555 21.3 21.3 21.3 11.746 0 21.302-9.555 21.302-21.3 0-11.746-9.556-21.301-21.301-21.301zm164.959 0c-11.745 0-21.301 9.555-21.301 21.301 0 11.745 9.556 21.3 21.301 21.3 11.746 0 21.301-9.555 21.301-21.3 0-11.746-9.555-21.301-21.301-21.301zm0 45.821c-13.52 0-24.521-11-24.521-24.52 0-5.067 1.582-9.966 4.572-14.168l1.458-2.048-34.937-34.937-2.082 1.702c-7.857 6.425-17.183 9.821-26.969 9.821-9.786 0-19.112-3.396-26.97-9.821l-2.081-1.702-34.937 34.937 1.458 2.048c2.99 4.202 4.572 9.101 4.572 14.168 0 13.52-11 24.52-24.521 24.52C11 214 0 203 0 189.48c0-13.522 11-24.521 24.52-24.521 5.067 0 9.966 1.58 14.167 4.572l2.049 1.458 34.938-34.938-1.703-2.082c-6.425-7.856-9.82-17.182-9.82-26.969 0-9.787 3.395-19.112 9.82-26.969l1.703-2.082-34.939-34.938-2.048 1.458c-4.201 2.992-9.1 4.573-14.166 4.573C11 49.042 0 38.042 0 24.522 0 11 11 0 24.52 0c13.521 0 24.522 11 24.522 24.521 0 5.066-1.582 9.965-4.572 14.167l-1.458 2.047 34.937 34.938 2.082-1.702c7.856-6.425 17.182-9.82 26.969-9.82 9.787 0 19.113 3.395 26.969 9.82l2.082 1.702 34.937-34.938-1.458-2.047c-2.99-4.202-4.572-9.101-4.572-14.167 0-13.521 11.001-24.52 24.521-24.52C203 0 214 11 214 24.52c0 13.521-11 24.521-24.521 24.521-5.066 0-9.965-1.581-14.166-4.573l-2.049-1.458-34.938 34.938 1.703 2.082c6.425 7.857 9.821 17.182 9.821 26.969 0 9.787-3.396 19.113-9.821 26.969l-1.703 2.082 34.938 34.938 2.048-1.458c4.203-2.992 9.102-4.572 14.167-4.572 13.521.001 24.521 11 24.521 24.522C214 203 203 214 189.479 214z" fill="#00E4F2"/></g><mask id="b" maskUnits="userSpaceOnUse" x="83" y="91" width="48" height="33"><path fill-rule="evenodd" clip-rule="evenodd" d="M83 91v33h48V91H83z" fill="#fff"/></mask><g mask="url(#b)"><path fill-rule="evenodd" clip-rule="evenodd" d="M131 107.378c0-6.279-2.635-11.969-6.901-16.115a.898.898 0 00-1.233 0l-7.012 6.67a.807.807 0 00-.019 1.159c.036.03.069.061.105.096.513.456.983.949 1.416 1.482v.002a8.905 8.905 0 01.186.239 12.114 12.114 0 011.274 2.036v.003c.307.621.565 1.27.764 1.941-.002.002-.002.002 0 .005.036.122.07.246.103.369v.002a11.633 11.633 0 01.377 2.583v.005c.008.149.011.295.011.443a11.97 11.97 0 01-.197 2.163 12.058 12.058 0 01-.515 1.915 9.68 9.68 0 01-.181.464c-.26.639-.573 1.251-.936 1.832a8.8 8.8 0 01-.271.419s-.003 0-.003.003c-.246.368-.518.721-.806 1.063L98.819 98.594l-7.674-7.35a.9.9 0 00-1.164-.058l-.005.002a.897.897 0 00-.155.153C85.6 95.482 83 101.14 83 107.379c0 .058 0 .117.003.175-.003.013-.003.029-.003.043 0 .028.003.058.006.084.016 1.509.188 2.981.501 4.407v.003a21.961 21.961 0 001.382 4.229v.002c.098.223.2.446.31.666v.003a22.435 22.435 0 001.854 3.165v.003c.169.239.338.472.518.702.743.985 1.571 1.91 2.469 2.769.052.05.108.1.16.148l.003.003a.936.936 0 00.538.172.89.89 0 00.617-.246l6.079-5.775a.805.805 0 00.075-1.095 2.332 2.332 0 01-.114-.117s0-.002-.003-.002c-2.12-2.22-3.413-5.174-3.413-8.419 0-3.317 1.352-6.332 3.557-8.567l18.434 17.651 6.624 6.374a.827.827 0 00.181.13.886.886 0 00.678.082.858.858 0 00.344-.183c.011-.008.022-.019.033-.029a.063.063 0 00.011-.013c.006-.003.008-.005.008-.008.094-.09.192-.183.286-.276v-.003a23.033 23.033 0 002.324-2.635v-.003c.172-.228.341-.456.501-.692l.003-.002a22.535 22.535 0 001.898-3.259c.105-.223.208-.448.304-.676a21.807 21.807 0 001.217-3.625v-.003c.041-.169.08-.339.119-.511v-.003c.305-1.413.474-2.871.49-4.367a.754.754 0 00.006-.084c0-.014 0-.03-.003-.043.003-.058.003-.117.003-.175z" fill="#00E4F2"/></g></svg>