<svg width="175" height="175" fill="none" xmlns="http://www.w3.org/2000/svg"><path d="M87.5 174.338c-21.653 0-43.419-8.037-60.273-24.221-34.489-33.262-35.494-88.4-2.343-122.89 33.261-34.489 88.288-35.605 122.889-2.343 34.601 33.261 35.605 88.288 2.344 122.889-17.077 17.635-39.847 26.565-62.617 26.565zm0-158.049c-18.751 0-37.391 7.255-51.343 21.765-27.235 28.35-26.342 73.555 1.897 100.79 28.35 27.234 73.555 26.341 100.79-1.898 27.234-28.35 26.341-73.555-1.898-100.79-13.84-13.28-31.587-19.866-49.446-19.866z" fill="#F1F1F1"/><path d="M142.304 38.389c-1.898 0-3.907-.67-5.47-2.233-12.724-12.166-29.355-19.31-46.878-19.867-4.353-.112-7.702-3.795-7.59-8.037C82.477 3.9 86.16.551 90.402.662c21.43.782 41.744 9.376 57.259 24.221 3.125 3.014 3.237 7.925.223 11.05a7.607 7.607 0 01-5.58 2.456z" fill="#089FAC"/></svg>