<svg width="81" height="81" fill="none" xmlns="http://www.w3.org/2000/svg"><path d="M40.388 80.124c-9.487 0-18.64-3.348-25.895-9.71-16.519-14.287-18.305-39.29-4.018-55.808C17.395 6.569 26.995 1.77 37.598.988c10.603-.78 20.76 2.68 28.797 9.6 16.519 14.286 18.305 39.4 4.018 55.92-6.92 8.035-16.52 12.835-27.123 13.616h-2.902zm-15.626-21.43c4.8 4.241 11.05 6.25 17.412 5.804 6.362-.446 12.278-3.348 16.408-8.26 8.706-10.045 7.59-25.225-2.456-33.93-4.8-4.242-11.05-6.251-17.412-5.805-6.362.447-12.278 3.349-16.407 8.26-8.595 10.045-7.59 25.225 2.455 33.931z" fill="#F1F1F1"/></svg>