<svg width="221" height="221" fill="none" xmlns="http://www.w3.org/2000/svg"><path d="M110.5 221C49.558 221 0 171.442 0 110.5S49.558 0 110.5 0 221 49.558 221 110.5 171.442 221 110.5 221zm0-205.374c-52.348 0-94.874 42.526-94.874 94.874 0 52.348 42.526 94.874 94.874 94.874 52.348 0 94.874-42.526 94.874-94.874 0-52.348-42.526-94.874-94.874-94.874z" fill="#F1F1F1"/><path d="M110.5 221c-22.881 0-44.758-6.92-63.398-19.979-18.193-12.725-32.034-30.471-39.847-51.12-1.562-4.019.447-8.595 4.465-10.046 4.018-1.563 8.594.447 10.045 4.465 13.952 36.498 49.67 61.054 88.735 61.054 52.348 0 94.874-42.526 94.874-94.874 0-52.348-42.526-94.874-94.874-94.874a7.765 7.765 0 01-7.813-7.813A7.765 7.765 0 01110.5 0C171.443 0 221 49.558 221 110.5S171.443 221 110.5 221z" fill="#00E3F1"/></svg>