<svg width="81" height="81" fill="none" xmlns="http://www.w3.org/2000/svg"><path d="M40.388 80.124c-9.487 0-18.64-3.349-25.895-9.71-16.519-14.288-18.305-39.29-4.018-55.809C17.395 6.57 26.995 1.77 37.598.988c10.604-.781 20.76 2.679 28.797 9.6 16.52 14.286 18.305 39.4 4.018 55.919-6.92 8.036-16.52 12.836-27.123 13.617h-2.902zm-15.626-21.43c4.8 4.241 11.05 6.25 17.412 5.804 6.362-.447 12.278-3.349 16.408-8.26 8.706-10.045 7.59-25.225-2.456-33.931-4.8-4.242-11.05-6.25-17.412-5.804-6.362.446-12.278 3.348-16.407 8.26-8.595 10.045-7.59 25.225 2.455 33.93z" fill="#F1F1F1"/><path d="M64.832 27.776c-2.232 0-4.464-.893-6.027-2.79a15.214 15.214 0 00-2.679-2.68 22.715 22.715 0 00-9.599-5.022c-4.13-1.116-6.697-5.358-5.58-9.487 1.116-4.13 5.357-6.697 9.487-5.581 5.916 1.562 11.161 4.353 15.85 8.371 1.562 1.34 3.013 2.902 4.352 4.465 2.79 3.348 2.344 8.26-.893 11.05-1.339 1.116-3.125 1.674-4.91 1.674z" fill="#171721"/></svg>