<svg width="127" height="127" fill="none" xmlns="http://www.w3.org/2000/svg"><path d="M63.5 126.786h-.893c-16.854-.223-32.704-7.031-44.535-19.086C6.241 95.645-.12 79.573.102 62.719c.223-16.854 7.032-32.704 19.086-44.535C31.243 6.353 47.316-.01 64.17.214 81.024.437 96.873 7.246 108.704 19.3c11.832 12.055 18.194 28.127 17.971 44.981-.224 16.854-7.032 32.704-19.087 44.535-11.831 11.608-27.457 17.97-44.088 17.97zm0-110.946c-12.501 0-24.22 4.8-33.262 13.506-9.152 8.929-14.175 20.76-14.398 33.484-.223 12.725 4.576 24.78 13.505 33.82 8.93 9.153 20.761 14.175 33.485 14.399h.67c12.5 0 24.22-4.8 33.261-13.506 9.153-8.93 14.176-20.76 14.399-33.485.223-12.724-4.576-24.779-13.505-33.82-8.93-9.152-20.761-14.175-33.485-14.398h-.67z" fill="#F1F1F1"/><path d="M105.914 35.596c-2.232 0-4.464-.893-6.027-2.79-8.036-9.488-19.198-15.404-31.476-16.743-4.241-.447-7.367-4.242-6.92-8.595.446-4.353 4.241-7.366 8.594-6.92 16.296 1.674 31.253 9.6 41.856 22.212 2.791 3.348 2.344 8.26-.892 11.05a8.217 8.217 0 01-5.135 1.786z" fill="#0F5B66"/></svg>