<svg width="72" height="72" fill="none" xmlns="http://www.w3.org/2000/svg"><path clip-rule="evenodd" d="M48.677 20.516c0 2.494-6.643 4.516-14.838 4.516C25.643 25.032 19 23.01 19 20.516S25.643 16 33.839 16c8.195 0 14.838 2.022 14.838 4.516z" stroke="#00E3F1" stroke-linejoin="round"/><path d="M33.839 32.774C25.643 32.774 19 30.752 19 28.258v-7.742m29.677 0v6.452M33.839 40.516C25.643 40.516 19 38.494 19 36v-4.516m14.839 16.774C25.643 48.258 19 46.236 19 43.742v-4.516m22.58 16.111c-2.253.421-4.904.663-7.741.663C25.643 56 19 53.978 19 51.484v-4.516m14.839-14.194h1.29m-1.29 7.742h1.29m-1.29 7.742h1.29" stroke="#00E3F1" stroke-linejoin="round"/><path clip-rule="evenodd" d="M56.42 48.258L46.741 56l-9.677-7.742V28.903l5.16 1.936 1.936-1.936h5.161l1.936 1.936 5.161-1.936v19.355z" stroke="#00E3F1" stroke-linejoin="round"/><path d="M51.258 36v1.29m0 6.452v1.29M48.677 36v1.29m0 1.29v1.29m0 3.872v1.29m0 1.291v1.29m2.581-9.033v1.29M42.226 36v1.29m0 6.452v1.29M44.806 36v1.29m0 1.29v1.29m0 3.872v1.29m0 1.291v1.29m-2.58-9.033v1.29m6.451 1.291v1.29m2.581-1.29v1.29m-6.452-1.29v1.29m-2.58-1.29v1.29m0-11.612v2.58m9.032-2.58v2.58m-16.774-4.516h-1.29m1.29 7.742h-1.29m1.29 7.742h-1.29m1.29 7.742h-1.29" stroke="#00E3F1" stroke-linejoin="round"/><path clip-rule="evenodd" d="M36 71c19.33 0 35-15.67 35-35S55.33 1 36 1 1 16.67 1 36s15.67 35 35 35z" stroke="#00E3F1"/></svg>