<svg width="72" height="72" fill="none" xmlns="http://www.w3.org/2000/svg"><path clip-rule="evenodd" d="M48.097 36c0 13.807-5.416 25-12.097 25-6.68 0-12.097-11.193-12.097-25S29.32 11 36 11s12.097 11.193 12.097 25z" stroke="#00E3F1"/><path clip-rule="evenodd" d="M36 48.097c-13.807 0-25-5.416-25-12.097 0-6.68 11.193-12.097 25-12.097S61 29.32 61 36 49.807 48.097 36 48.097z" stroke="#00E3F1"/><path clip-rule="evenodd" d="M44.553 44.554c-9.762 9.763-21.507 13.848-26.23 9.123-4.725-4.723-.64-16.467 9.123-26.23 9.764-9.763 21.507-13.849 26.23-9.124 4.726 4.724.64 16.468-9.123 26.23z" stroke="#00E3F1"/><path clip-rule="evenodd" d="M27.447 44.554c-9.763-9.763-13.849-21.508-9.124-26.23 4.724-4.726 16.467-.64 26.23 9.122 9.764 9.764 13.85 21.508 9.124 26.231-4.723 4.725-16.468.64-26.23-9.123z" stroke="#00E3F1"/><path clip-rule="evenodd" d="M41.645 31.161c0 1.335-2.527 2.42-5.645 2.42-3.118 0-5.645-1.085-5.645-2.42s2.527-2.42 5.645-2.42c3.118 0 5.645 1.085 5.645 2.42z" stroke="#00E3F1"/><path d="M41.645 34.387c0 1.336-2.527 2.42-5.645 2.42-3.118 0-5.645-1.084-5.645-2.42m11.29 3.226c0 1.335-2.527 2.42-5.645 2.42-3.118 0-5.645-1.085-5.645-2.42" stroke="#00E3F1"/><path d="M41.645 31.161v9.678c0 1.335-2.527 2.419-5.645 2.419-3.118 0-5.645-1.084-5.645-2.42v-9.677m19.355-9.677h1.613M49.71 50.516h1.613m-30.646 0h1.613m-1.613-29.032h1.613" stroke="#00E3F1"/><path clip-rule="evenodd" d="M36 71c19.33 0 35-15.67 35-35S55.33 1 36 1 1 16.67 1 36s15.67 35 35 35z" stroke="#00E3F1"/></svg>