<svg width="72" height="72" fill="none" xmlns="http://www.w3.org/2000/svg"><path fill-rule="evenodd" clip-rule="evenodd" d="M36 .5C16.394.5.5 16.394.5 36S16.394 71.5 36 71.5 71.5 55.606 71.5 36 55.606.5 36 .5zM1.5 36C1.5 16.946 16.946 1.5 36 1.5c19.054 0 34.5 15.446 34.5 34.5 0 19.054-15.446 34.5-34.5 34.5C16.946 70.5 1.5 55.054 1.5 36zm18.516-1.79H15.5V21.66h20.935v1.436h1V18.08H14.5v16.835l4.81 4.81h4.077v-1h-3.37v-4.517zm16.42-13.549H15.5v-1.58h20.935v1.58zM19.015 38.02l-2.809-2.81h2.81v2.81zm13.549-13.487H55.5v21.645h-6.306v-1H54.5V28.113H33.565v5.306h-1v-8.887zm1 2.58H54.5v-1.58H33.565v1.58zm-7.742 23.872h4.516V55.5h16.419V38.435H25.822v12.549zm0-13.549h20.935v-1.58H25.822v1.58zm.706 14.549l2.81 2.809v-2.81h-2.81zm21.229-17.129H24.822v16.836l4.81 4.809h18.126V34.855zm-25.661-9.323h7.742v-1h-7.742v1zm-1.29 0h-2.581v-1h2.58v1zm6.451 2.58h2.58v-1h-2.58v1zm-9.032 0v-1h7.742v1h-7.742zm0 2.581h11.613v-1H18.226v1zm19.001 1.145c-.317-.318-.512-.5-.937-.5v-1c.853 0 1.303.452 1.63.778l.014.014c.318.318.512.5.937.5.425 0 .619-.182.937-.5l.014-.014c.327-.326.778-.777 1.63-.777.852 0 1.302.45 1.629.777l.014.014c.318.318.512.5.937.5.425 0 .62-.182.937-.5l.014-.014c.327-.326.778-.777 1.63-.777.853 0 1.303.45 1.63.778l.014.014c.317.317.51.498.937.498.425 0 .62-.181.936-.498l.014-.014c.327-.327.777-.778 1.63-.778v1c-.426 0-.62.181-.937.498l-.013.015c-.327.326-.777.777-1.63.777-.854 0-1.304-.45-1.63-.777l-.015-.015c-.316-.317-.51-.498-.936-.498-.425 0-.62.181-.937.499l-.014.014c-.327.327-.777.777-1.63.777-.852 0-1.303-.45-1.63-.777l-.014-.014c-.318-.318-.512-.5-.936-.5-.425 0-.62.182-.937.5l-.015.014c-.326.327-.777.777-1.63.777-.851 0-1.302-.45-1.629-.777l-.014-.014zM31.13 42.306h12.903v-1H31.13v1zm-2.58-1h1.29v1h-1.29v-1zm2.58 3.581h12.903v-1H31.13v1zm-2.58-1h1.29v1h-1.29v-1zm2.58 3.58h12.903v-1H31.13v1zm-2.58-1h1.29v1h-1.29v-1zm15.483 2.581h-5.161v1h5.161v-1z" fill="#00E3F1"/></svg>