<svg width="318" height="66" fill="none" xmlns="http://www.w3.org/2000/svg"><path d="M38.065 24.956L24.967 66H0l13.098-41.044h24.967zM113.136 0l-13.098 41.045H75.071L88.169 0h24.967z" fill="#1CDEED"/><path d="M113.466 66H79.329c-6.805 0-13.33-2.768-18.142-7.694L4.36.125 4.485 0h33.891c6.805 0 13.33 2.768 18.142 7.694L113.466 66z" fill="#1CDEED"/><path d="M179.388 47.861l-20.576-28.74v28.74h-2.792V14.406h2.842l20.477 28.34v-28.34h2.792v33.455h-2.743zm34.192-33.458h-3.483L196.72 47.856h3.243l3.231-8.218.934-2.61 7.686-19.563 7.736 19.563h-13.441v2.61h14.375l3.23 8.218h3.244L213.58 14.403zm33.877 33.458V17.014h-10.68v-2.608h24.201v2.608h-10.68v30.847h-2.841zm29.097 0V14.406h2.792v33.455h-2.792zm20.724-33.458v12.92h2.789v-10.31H318v-2.61h-20.722zm0 15.001v18.452h2.789V32.014h17.592v-2.61h-20.381z" fill="#fff"/></svg>