<svg width="70" height="49" fill="none" xmlns="http://www.w3.org/2000/svg"><path d="M67.8 26.063H54.54c-.666 0-1.276-.541-1.276-1.245 0-.703.555-1.244 1.276-1.244H67.8c.667 0 1.277.541 1.277 1.244s-.61 1.244-1.276 1.244zm-53.263 0H1.277C.61 26.063 0 25.521 0 24.817c0-.703.555-1.244 1.276-1.244h13.26c.667 0 1.277.541 1.277 1.244s-.555 1.244-1.276 1.244zM48.16 12.754c-.333 0-.666-.109-.888-.38-.5-.486-.5-1.244 0-1.73l9.876-9.63a1.262 1.262 0 011.775 0c.5.487.5 1.244 0 1.731l-9.876 9.63c-.277.27-.554.379-.887.379zM11.041 49c-.333 0-.666-.108-.888-.379a1.188 1.188 0 010-1.731l8.878-8.656a1.262 1.262 0 011.775 0c.5.487.5 1.244 0 1.731l-8.877 8.656a1.29 1.29 0 01-.888.379z" fill="#00E3F1"/><path d="M7.102 44.401c-.389 0-.777-.162-1.054-.54-.389-.542-.222-1.3.333-1.678l10.486-6.979c.555-.378 1.331-.216 1.72.325.388.541.222 1.298-.333 1.677L7.768 44.185c-.167.108-.444.216-.666.216z" fill="url(#paint0_linear)"/><path d="M50.545 15.35a1.28 1.28 0 01-1.054-.54c-.388-.542-.222-1.299.333-1.678l11.43-7.628c.555-.378 1.331-.216 1.72.325.388.541.222 1.298-.333 1.677l-11.43 7.628c-.166.162-.444.216-.666.216z" fill="url(#paint1_linear)"/><path d="M3.995 38.884c-.5 0-.943-.27-1.165-.758-.278-.595 0-1.352.665-1.623l11.818-4.977c.61-.27 1.388 0 1.665.65.277.594 0 1.352-.666 1.622L4.494 38.775c-.166.055-.333.109-.5.109zm48.548-20.396c-.5 0-.943-.27-1.165-.757-.278-.595 0-1.353.666-1.623l12.539-5.248c.61-.27 1.387 0 1.664.65.278.595 0 1.352-.665 1.622l-12.54 5.248c-.166.108-.333.108-.5.108z" fill="#00E3F1"/><path d="M1.997 32.77c-.554 0-1.11-.378-1.22-.973-.167-.65.277-1.299.943-1.461l12.761-2.65c.666-.163 1.332.27 1.498.919.167.649-.277 1.298-.943 1.46L2.275 32.716a.619.619 0 01-.278.054z" fill="url(#paint2_linear)"/><path d="M53.874 22.059c-.554 0-1.11-.38-1.22-.974-.167-.65.277-1.299.943-1.46l13.205-2.706c.666-.162 1.332.27 1.498.92.167.65-.277 1.298-.943 1.46l-13.205 2.706c-.111.054-.167.054-.278.054z" fill="url(#paint3_linear)"/><path d="M67.08 32.717h-.278L53.985 30.12c-.665-.162-1.11-.812-.998-1.46a1.343 1.343 0 011.498-.974L67.3 30.282c.666.163 1.11.812 1 1.46-.112.596-.611.975-1.222.975z" fill="url(#paint4_linear)"/><path d="M15.203 22.112h-.278L1.72 19.408c-.666-.163-1.11-.812-.943-1.461.166-.65.832-1.082 1.498-.92l13.205 2.705c.666.162 1.11.812.943 1.46-.166.542-.666.92-1.22.92z" fill="url(#paint5_linear)"/><path d="M65.193 38.72c-.166 0-.333-.053-.5-.107L52.82 33.69c-.61-.27-.943-.974-.665-1.623a1.3 1.3 0 011.664-.65l11.874 4.923c.61.271.943.974.665 1.623a1.314 1.314 0 01-1.165.758zM16.479 18.597c-.167 0-.333-.054-.5-.108L3.385 13.295c-.61-.27-.944-.974-.666-1.623.277-.649.998-.92 1.664-.649l12.595 5.194c.61.27.943.973.666 1.623a1.255 1.255 0 01-1.165.757z" fill="#00E3F1"/><path d="M18.531 15.35c-.222 0-.499-.054-.72-.216L6.38 7.56c-.555-.379-.722-1.136-.333-1.677.388-.541 1.165-.703 1.72-.325l11.43 7.574c.554.379.72 1.136.332 1.677-.222.379-.61.541-.999.541z" fill="url(#paint6_linear)"/><path d="M61.975 44.347c-.222 0-.5-.054-.721-.216l-10.486-6.979c-.555-.379-.722-1.136-.333-1.677.388-.54 1.165-.703 1.72-.325l10.486 6.98c.555.378.721 1.135.333 1.676-.167.325-.555.541-.999.541z" fill="url(#paint7_linear)"/><path d="M57.98 48.946c-.333 0-.666-.108-.888-.379L9.488 2.097c-.5-.488-.5-1.245 0-1.732a1.262 1.262 0 011.775 0l47.605 46.471c.5.487.5 1.244 0 1.731-.222.27-.555.379-.888.379z" fill="#00E3F1"/><defs><linearGradient id="paint0_linear" x1="18.5" y1="36" x2="7" y2="44" gradientUnits="userSpaceOnUse"><stop stop-color="#00C8F3" stop-opacity=".01"/><stop offset="1" stop-color="#00E3F1"/></linearGradient><linearGradient id="paint1_linear" x1="52.24" y1="12.733" x2="62.695" y2="5.435" gradientUnits="userSpaceOnUse"><stop stop-color="#00C8F3" stop-opacity=".01"/><stop offset="1" stop-color="#00E3F1"/></linearGradient><linearGradient id="paint2_linear" x1="16" y1="29" x2="1" y2="32" gradientUnits="userSpaceOnUse"><stop stop-color="#00C8F3" stop-opacity=".01"/><stop offset="1" stop-color="#00E3F1"/></linearGradient><linearGradient id="paint3_linear" x1="53" y1="21" x2="67.5" y2="17.5" gradientUnits="userSpaceOnUse"><stop stop-color="#00C8F3" stop-opacity=".01"/><stop offset="1" stop-color="#00E3F1"/></linearGradient><linearGradient id="paint4_linear" x1="53.5" y1="28" x2="68" y2="32" gradientUnits="userSpaceOnUse"><stop stop-color="#00C8F3" stop-opacity=".01"/><stop offset="1" stop-color="#00E3F1"/></linearGradient><linearGradient id="paint5_linear" x1="15.5" y1="22" x2="1.5" y2="18" gradientUnits="userSpaceOnUse"><stop stop-color="#00C8F3" stop-opacity=".01"/><stop offset="1" stop-color="#00E3F1"/></linearGradient><linearGradient id="paint6_linear" x1="19" y1="15.5" x2="6" y2="6.5" gradientUnits="userSpaceOnUse"><stop stop-color="#00C8F3" stop-opacity=".01"/><stop offset="1" stop-color="#00E3F1"/></linearGradient><linearGradient id="paint7_linear" x1="50.794" y1="35.083" x2="60.596" y2="41.918" gradientUnits="userSpaceOnUse"><stop stop-color="#00C8F3" stop-opacity=".01"/><stop offset="1" stop-color="#00E3F1"/></linearGradient></defs></svg>