<svg width="159" height="33" fill="none" xmlns="http://www.w3.org/2000/svg"><g fill="#1D1D29"><path d="M19.033 12.477L12.483 33H0l6.549-20.523h12.484zM56.568 0l-6.549 20.522H37.535L44.085 0h12.483z"/><path d="M56.733 33H39.664c-3.402 0-6.665-1.384-9.07-3.847L2.18.063 2.243 0h16.945c3.402 0 6.665 1.384 9.071 3.847L56.733 33zm32.961-9.07L79.406 9.56v14.37H78.01V7.203h1.42l10.24 14.17V7.203h1.396V23.93h-1.372zM106.79 7.201h-1.741l-6.69 16.726h1.623l1.615-4.108.467-1.305 3.843-9.782 3.868 9.782h-6.72v1.305h7.187l1.615 4.108h1.622L106.79 7.201zm16.939 16.729V8.507h-5.341V7.203h12.101v1.304h-5.34V23.93h-1.42zm14.548 0V7.203h1.396V23.93h-1.396zm10.362-16.729v6.46h1.394V8.507H159V7.201h-10.361zm0 7.5v9.226h1.394v-7.92h8.797v-1.305h-10.191z"/></g></svg>