<svg width="207" height="43" fill="none" xmlns="http://www.w3.org/2000/svg"><path d="M24.778 16.259L16.252 43H0l8.526-26.74h16.252zM73.645 0L65.12 26.741H48.867L57.393 0h16.252z" fill="#1CDEED"/><path d="M73.86 43H51.64c-4.43 0-8.678-1.803-11.81-5.013L2.84.081 2.918 0H24.98c4.43 0 8.677 1.803 11.81 5.013L73.86 43z" fill="#1CDEED"/><path d="M116.771 31.182l-13.393-18.725v18.725h-1.818V9.386h1.85l13.329 18.463V9.386h1.818v21.796h-1.786zm22.258-21.798h-2.268l-8.708 21.795h2.112l2.103-5.354.608-1.7 5.003-12.746 5.035 12.745h-8.749v1.7h9.357l2.103 5.355h2.112l-8.708-21.795zm22.052 21.798V11.085h-6.953v-1.7h15.754v1.7h-6.952v20.097h-1.849zm18.94 0V9.386h1.818v21.796h-1.818zm13.49-21.798v8.418h1.815v-6.718H207v-1.7h-13.489zm0 9.773V31.18h1.815V20.858h11.452v-1.7h-13.267z" fill="#fff"/></svg>