<svg width="43" height="42" fill="none" xmlns="http://www.w3.org/2000/svg"><path fill-rule="evenodd" clip-rule="evenodd" d="M0 42h14.438v-1.313H0V42zm41.607 0h1.312v-1.313h-1.312V42zm-2.625 0h1.313v-1.313h-1.313V42zm-2.625 0h1.312v-1.313h-1.312V42zm-2.625 0h1.313v-1.313h-1.313V42zm-2.625 0h1.312v-1.313h-1.312V42zm-2.624 0h1.312v-1.313h-1.313V42zm-2.626 0h1.312v-1.313h-1.312V42zm-2.624 0h1.312v-1.313h-1.313V42zm-2.626 0h1.312v-1.313h-1.312V42zm-2.625-2.278v-7.566h1.313v5.559l3.937-1.723v-3.836h1.313v4.695l-6.563 2.871zm-7.219-22.659h21V15.75h-21v1.313zm4.412 18.533l-5.952-5.951.928-.928 5.952 5.95-.928.929zm-.73 2.63l-8.093-2.31.36-1.262 8.093 2.31-.36 1.262z" fill="#00E3F1"/><path fill-rule="evenodd" clip-rule="evenodd" d="M31.107 0v19.477l-6.562 9.188V31.5h-6.563v-2.835l-6.562-9.188V0h-1.313v19.898l6.563 9.188v3.727h9.187v-3.727l6.563-9.188V0h-1.313z" fill="#00E3F1"/></svg>