<svg width="43" height="43" fill="none" xmlns="http://www.w3.org/2000/svg"><mask id="a" maskUnits="userSpaceOnUse" x="0" y="9" width="32" height="34"><path fill-rule="evenodd" clip-rule="evenodd" d="M15.731 42.808H0V9.668h31.463v33.14H15.73z" fill="#fff"/></mask><g mask="url(#a)"><path fill-rule="evenodd" clip-rule="evenodd" d="M23.028 42.808H3.184C1.43 42.808 0 41.388 0 39.643v-16.06c0-2.402.993-4.74 2.725-6.416a7.632 7.632 0 002.316-5.455V9.668h21.38v2.044c0 2.041.844 4.03 2.317 5.456a8.974 8.974 0 012.725 6.416v9.877h-1.351v-9.877a7.63 7.63 0 00-2.316-5.455 8.981 8.981 0 01-2.726-6.417v-.702H6.392v.702a8.98 8.98 0 01-2.725 6.417 7.631 7.631 0 00-2.316 5.455v16.06a1.83 1.83 0 001.833 1.822h19.844v1.342z" fill="#00E3F1"/></g><path fill-rule="evenodd" clip-rule="evenodd" d="M3.19 9.76h24.6V2.674a1.34 1.34 0 00-1.34-1.337H4.53c-.74 0-1.34.6-1.34 1.337V9.76zm25.94 1.337H1.85V2.674A2.68 2.68 0 014.53 0h21.92a2.68 2.68 0 012.68 2.674v8.423z" fill="#00E3F1"/><mask id="b" maskUnits="userSpaceOnUse" x="0" y="0" width="43" height="43"><path fill-rule="evenodd" clip-rule="evenodd" d="M0 43h43V0H0v43z" fill="#fff"/></mask><g mask="url(#b)" fill-rule="evenodd" clip-rule="evenodd" fill="#00E3F1"><path d="M5.086 10.634h1.387V4.161H5.086v6.473zm3.237 0H9.71V4.161H8.323v6.473zm3.237 0h1.386V4.161H11.56v6.473zm3.236 0h1.387V4.161h-1.387v6.473zm3.699 0h1.387V4.161h-1.387v6.473zm3.236 0h1.387V4.161h-1.387v6.473zm3.237 0h1.387V4.161h-1.387v6.473zm-2.408 27.28H9.71V23.118h21.268v10.285h-1.334v-8.93h-18.6v12.086H22.56v1.355z"/><path d="M28.453 36.464a2.616 2.616 0 00-2.618 2.607 2.616 2.616 0 002.618 2.605h10.599a2.616 2.616 0 002.618-2.605 2.616 2.616 0 00-2.618-2.607H28.453zM39.052 43H28.453c-2.177 0-3.948-1.763-3.948-3.93 0-2.168 1.771-3.93 3.948-3.93h10.599c2.177 0 3.948 1.762 3.948 3.93 0 2.167-1.77 3.93-3.948 3.93z"/><path d="M32.828 42.076h1.387v-6.474h-1.387v6.474zM4.544 38.839H3.237V23.782c0-1.488.601-2.937 1.65-3.975a11.04 11.04 0 003.072-5.936l1.288.229c-.433 2.52-1.657 4.886-3.448 6.66a4.278 4.278 0 00-1.255 3.022V38.84z"/></g></svg>