<svg width="45" height="45" fill="none" xmlns="http://www.w3.org/2000/svg"><path fill-rule="evenodd" clip-rule="evenodd" d="M13.5 35.898h6.072v-1.384H13.5v1.384z" fill="#00E3F1"/><path fill-rule="evenodd" clip-rule="evenodd" d="M21.691 0l-5.075 10.376v18.353l-9.04 15.694 2.96.042 9.307-8.566h5.284l9.28 8.566 2.98-.042-8.928-15.672-.075-18.398-5.596-10L22.53 0h-.838zM9.951 43.072L18 29.101V10.696l4.193-8.571L27 10.718l.075 18.402 7.949 13.951-.085.002-9.271-8.558h-6.366l-9.298 8.558h-.052z" fill="#00E3F1"/><path fill-rule="evenodd" clip-rule="evenodd" d="M25.397 35.898h6.19v-1.384h-6.19v1.384z" fill="#00E3F1"/><path fill-rule="evenodd" clip-rule="evenodd" d="M31.26 35.816l-14.28-7.655.655-1.22 14.278 7.655-.654 1.22z" fill="#00E3F1"/><path fill-rule="evenodd" clip-rule="evenodd" d="M13.827 35.817l-.653-1.221L27.44 26.96l.653 1.221-14.266 7.635zM8.362 25.613h1.391V24.23H8.362v1.384zm8.945-2.742l-8.942-.004v-2.272l8.888-4.363 11.171 5.361-.598 1.248-10.566-5.07-7.51 3.712 7.558.003v1.385zm17.347 2.742h1.392V24.23h-1.392v1.384z" fill="#00E3F1"/><path fill-rule="evenodd" clip-rule="evenodd" d="M18.84 22.188l3.689 1.894 5.037-2.595 7.093-.004v-.039l-6.975-3.665-8.843 4.409zm8.61 5.98l-4.92-2.529-4.905 2.528-.634-1.231 4.025-2.074-5.241-2.692L27.7 16.224l8.343 4.384v2.259l-8.14.004-3.86 1.989 4.04 2.075-.633 1.232zM8.362 15.358h1.391v-1.384H8.362v1.384zm8.945-2.745l-8.942-.005V10.29l10.74-4.067 8.931 5.096-.687 1.203-8.364-4.774-9.179 3.477 7.502.003v1.385zm17.347 2.745h1.392v-1.384h-1.392v1.384z" fill="#00E3F1"/><path fill-rule="evenodd" clip-rule="evenodd" d="M18.769 11.864l3.72 1.82 5.044-2.456 7.087-.003-8.853-3.472-6.998 4.111zm-1.209 5.76l-.606-1.245 3.955-1.926-5.063-2.477 9.799-5.758 10.399 4.077v2.313l-8.192.005-3.787 1.843 3.932 1.924-.609 1.244-4.901-2.4-4.927 2.4z" fill="#00E3F1"/><mask id="a" maskUnits="userSpaceOnUse" x="0" y="16" width="10" height="4"><path fill-rule="evenodd" clip-rule="evenodd" d="M0 19.144v-2.343h9.754v2.343H0z" fill="#fff"/></mask><g mask="url(#a)"><path fill-rule="evenodd" clip-rule="evenodd" d="M4.368 19.144c-1.443 0-2.887-.319-4.16-.959H0v-1.384h.547l.151.08c2.195 1.16 5.146 1.16 7.34 0l.152-.08h1.564v1.384H8.53c-1.274.64-2.718.96-4.162.96z" fill="#00E3F1"/></g><path fill-rule="evenodd" clip-rule="evenodd" d="M4.369 29.438c-1.444 0-2.888-.32-4.162-.959H0v-1.384h.546l.152.08c2.195 1.159 5.145 1.16 7.34 0l.152-.08h1.563v1.384H8.53c-1.273.64-2.717.959-4.16.959zM40.04 19.144c-1.444 0-2.887-.319-4.161-.959h-1.224v-1.384h1.563l.152.08c2.196 1.16 5.144 1.159 7.34 0l.152-.08h.547v1.384H44.2c-1.274.64-2.717.96-4.16.96zm0 10.273c-1.444 0-2.887-.32-4.161-.96h-1.224v-1.384h1.563l.152.08c2.196 1.16 5.144 1.16 7.34 0l.152-.08h.547v1.385H44.2c-1.274.64-2.717.959-4.16.959z" fill="#00E3F1"/></svg>