<svg width="43" height="42" fill="none" xmlns="http://www.w3.org/2000/svg"><path fill-rule="evenodd" clip-rule="evenodd" d="M18.378 35.438h9.188v-5.25h-9.188v5.25zm-1.312 1.312h11.812v-7.875H17.066v7.875z" fill="#00E3F1"/><path fill-rule="evenodd" clip-rule="evenodd" d="M21.003 36.094h1.313V29.53h-1.313v6.563zm18.375.656h-8.531v-1.312h7.219V6.563h-15.75V5.251h17.062v31.5z" fill="#00E3F1"/><path fill-rule="evenodd" clip-rule="evenodd" d="M18.378 27.603h-1.312v-.697a3.285 3.285 0 013.28-3.281h7.22a1.314 1.314 0 000-2.625h-5.25a2.627 2.627 0 01-2.625-2.625v-2.626h1.312v2.626c0 .724.589 1.312 1.313 1.312h5.25a2.628 2.628 0 012.625 2.625 2.627 2.627 0 01-2.625 2.625h-7.22a1.971 1.971 0 00-1.968 1.969v.697z" fill="#00E3F1"/><path fill-rule="evenodd" clip-rule="evenodd" d="M19.69 14.438h1.313v-2.626h1.313v-5.25h-3.938v5.25h1.313v2.626zm2.626 1.312h-3.938v-2.625h-1.312V5.25h6.562v7.875h-1.312v2.625z" fill="#00E3F1"/><path fill-rule="evenodd" clip-rule="evenodd" d="M42.003 42H8.536v-1.313h32.155V1.313H8.536V0h33.467v42z" fill="#00E3F1"/><mask id="a" maskUnits="userSpaceOnUse" x="0" y="0" width="43" height="42"><path fill-rule="evenodd" clip-rule="evenodd" d="M0 42h42.003V0H0v42z" fill="#fff"/></mask><g mask="url(#a)" fill-rule="evenodd" clip-rule="evenodd" fill="#00E3F1"><path d="M32.815 36.094h1.313V5.906h-1.313v30.188zm-17.062.656h-5.25V5.25h6.563v1.313h-5.25v28.875h3.937v1.312zM8.536 42H0V0h8.536v1.313H1.312v39.374h7.224V42z"/><path d="M7.875 40.031h1.313V2.625H7.875v37.406zm3.281-36.093h1.313V2.625h-1.313v1.313zm2.625 0h1.313V2.625H13.78v1.313zm2.625 0h1.313V2.625h-1.313v1.313zm2.625 0h1.313V2.625H19.03v1.313zm2.625 0h1.313V2.625h-1.313v1.313zm2.625 0h1.313V2.625H24.28v1.313zm2.625 0h1.313V2.625h-1.313v1.313zm2.625 0h1.313V2.625H29.53v1.313zm2.625 0h1.313V2.625h-1.313v1.313zm2.625 0h1.313V2.625H34.78v1.313zm2.625 0h1.313V2.625h-1.313v1.313zM35.44 39.375h3.936v-1.313H35.44v1.313zm-5.253 0h3.935v-1.313h-3.935v1.313zM23.625 9.188h13.126V7.875H23.625v1.313zm-12.469 0h5.91V7.875h-5.91v1.313z"/></g></svg>