<svg width="42" height="46" fill="none" xmlns="http://www.w3.org/2000/svg"><path fill-rule="evenodd" clip-rule="evenodd" d="M19.207 34.139l2.527 4.559 2.525-4.56h-5.052zm2.527 7.435l-4.893-8.829h9.784l-4.891 8.829zm-4.802-39.48c-4.576.08-8.912 2.362-11.539 6.145-2.626 3.782-3.246 8.64-1.718 12.949L16.932 2.094zM3.389 24.045l-.51-1.112C.58 17.91 1.103 11.975 4.25 7.443 7.393 2.915 12.772.34 18.289.739l1.221.087L3.39 24.045z" fill="#00E3F1"/><path fill-rule="evenodd" clip-rule="evenodd" d="M2.566 14.551l-.424-1.327 7.15-2.285-.358-7.494 1.393-.066.409 8.562-8.17 2.61zM18.8 20.044l-8.71-6.018.792-1.147 8.71 6.018-.793 1.148zM40.424 34.99l-14.397-9.95.792-1.147 12.211 8.44v-1.618L24.457 20.617l.793-1.145 15.174 10.513v5.005zM19.837 17.416l-8.175-5.664.793-1.146 8.176 5.665-.794 1.145z" fill="#00E3F1"/><mask id="a" maskUnits="userSpaceOnUse" x="0" y="0" width="42" height="46"><path fill-rule="evenodd" clip-rule="evenodd" d="M0 45.372h41.959V.697H0v44.675z" fill="#fff"/></mask><g mask="url(#a)" fill-rule="evenodd" clip-rule="evenodd" fill="#00E3F1"><path d="M2.869 42.619h1.394V24.704H2.869V42.62z"/><path d="M6.97 45.319H0v-4.27h1.394v2.876h4.182V41.05H6.97v4.269zm32.06-6.912h1.394v-2.875H39.03v2.875zm0 5.56h1.535V41.12H39.03v2.847zm-1.394 1.394h4.323v-5.634h-4.323v5.634zM11.7 43.967h.184l7.883-18.831H23.7l7.877 18.819.202-.005-8.247-25.57c-.382-.845-1.17-1.127-1.776-1.115-.607.015-1.378.34-1.716 1.202l-8.34 25.5zm18.96 1.406L22.771 26.53h-2.077l-7.883 18.83H9.776l8.952-27.364c.506-1.291 1.647-2.09 2.993-2.124 1.351-.055 2.526.707 3.08 1.933l.083.194 8.794 27.296-3.019.078z"/><path d="M21.037 20.3h1.394v-1.26h-1.394v1.26zm-7.31 21.448H29.84v-1.395H13.727v1.395zm4.287-18.63h7.562v-1.394h-7.562v1.394z"/></g></svg>