<svg width="43" height="43" fill="none" xmlns="http://www.w3.org/2000/svg"><path fill-rule="evenodd" clip-rule="evenodd" d="M16.538 12.128h-1.282V10.83c0-1.55-1.156-2.813-2.576-2.813-1.42 0-2.577 1.262-2.577 2.813v1.3H8.821v-1.3c0-2.323 1.731-4.214 3.859-4.214 2.127 0 3.858 1.89 3.858 4.214v1.3z" fill="#00E3F1"/><mask id="a" maskUnits="userSpaceOnUse" x="34" y="17" width="9" height="7"><path fill-rule="evenodd" clip-rule="evenodd" d="M42.416 17.712v5.883h-8.227v-5.883h8.227z" fill="#fff"/></mask><g mask="url(#a)"><path fill-rule="evenodd" clip-rule="evenodd" d="M35.011 23.595c-.277 0-.553-.027-.822-.081l.272-1.3c.18.037.365.055.55.055 1.502 0 2.724-1.196 2.724-2.664 0-1.044.869-1.893 1.936-1.893h2.745v1.326H39.67a.574.574 0 00-.579.567c0 2.2-1.83 3.99-4.08 3.99z" fill="#00E3F1"/></g><path fill-rule="evenodd" clip-rule="evenodd" d="M34.73 11.577H33.4V9.68c0-2.454-1.942-4.451-4.328-4.451a4.26 4.26 0 00-2.84 1.09l-.873-1.031a5.566 5.566 0 013.712-1.428c3.12 0 5.66 2.611 5.66 5.82v1.898z" fill="#00E3F1"/><path fill-rule="evenodd" clip-rule="evenodd" d="M30.32 11.577c-2.844 0-5.158-2.332-5.158-5.2 0-2.77-2.235-5.022-4.984-5.022-2.381 0-4.439 1.707-4.892 4.059a10.392 10.392 0 00-.142 2.418l-1.342.082c-.091-1.504.156-2.717.166-2.768C14.542 2.168 17.155 0 20.178 0c3.49 0 6.328 2.86 6.328 6.378 0 2.12 1.712 3.844 3.815 3.844v1.355z" fill="#00E3F1"/><mask id="b" maskUnits="userSpaceOnUse" x="0" y="0" width="43" height="43"><path fill-rule="evenodd" clip-rule="evenodd" d="M0 43h42.449V0H0v43z" fill="#fff"/></mask><g mask="url(#b)" fill-rule="evenodd" clip-rule="evenodd" fill="#00E3F1"><path d="M32 12.128h9.372v-1.103H32v1.103zm-5.189 19.295c-2.06-5.368-3.106-10.932-3.106-16.538h1.39c0 5.446 1.016 10.854 3.02 16.073l-1.304.465zM13.29 43H0l.654-1.038c5.505-8.744 8.181-17.555 8.181-26.937V13.23H20.95v1.354H10.184v.441c0 9.273-2.537 17.994-7.75 26.622H13.29V43z"/><path d="M25.91 18.743h1.312c0 1.97 1.514 3.573 3.374 3.573 1.861 0 3.375-1.603 3.375-3.573h1.311c0 2.736-2.102 4.962-4.685 4.962-2.585 0-4.687-2.226-4.687-4.962zm2.205-2.756h-5.002c-2.106 0-3.818-1.667-3.818-3.716v-1.246h1.327v1.245c0 1.337 1.117 2.425 2.49 2.425h5.003v1.292zm3.859 0h7.718v-1.102h-7.718v1.102zM9.372 20.948h14.884v-1.102H9.372v1.102zm3.548 20.673h28.185V31.7H12.92v9.922zM11.578 43H42.45V30.32H11.577V43z"/><path d="M39.692 31.423h-1.358v-1.901h-5.552v1.9h-1.359v-3.307h8.27v3.308z"/><path d="M36.936 28.116h1.102v-2.757h-1.102v2.757zm-22.603 7.166h1.322V34.18h-1.322v1.102zm2.644 0h1.321V34.18h-1.321v1.102zm2.643 0h1.321V34.18H19.62v1.102zm2.643 0h1.321V34.18h-1.321v1.102zm2.643 0h1.322V34.18h-1.322v1.102zm2.643 0h1.322V34.18h-1.322v1.102zm2.643 0h1.322V34.18h-1.322v1.102zm2.644 0h1.321V34.18h-1.321v1.102zm2.643 0H36.8V34.18h-1.322v1.102zm2.643 0h1.019V34.18h-1.019v1.102zm1.019 7.167h-1.44v-2.45h-1.53v2.45h-1.44v-3.86h4.41v3.86zm-13.231-.001h-1.312v-4.144H17.85v4.144h-1.312v-5.513h9.372v5.513z"/><path d="M17.641 40.243h8.27v-1.102h-8.27v1.102z"/></g></svg>