<svg width="46" height="45" fill="none" xmlns="http://www.w3.org/2000/svg"><mask id="a" maskUnits="userSpaceOnUse" x="15" y="36" width="10" height="10"><path fill-rule="evenodd" clip-rule="evenodd" d="M15.472 45h8.683v-8.682h-8.683V45z" fill="#fff"/></mask><g mask="url(#a)"><path fill-rule="evenodd" clip-rule="evenodd" d="M19.814 37.725a2.938 2.938 0 00-2.935 2.934 2.938 2.938 0 002.934 2.935h2.935v-5.87h-2.934zM24.154 45h-4.34a4.346 4.346 0 01-4.342-4.341 4.346 4.346 0 014.342-4.342h4.34V45z" fill="#00E3F1"/></g><path fill-rule="evenodd" clip-rule="evenodd" d="M23.452 39.587h3.267V38.18h-3.267v1.406zm0 3.551h3.267V41.73h-3.267v1.407zM35.86 15.469a3.52 3.52 0 00-3.516 3.515 3.52 3.52 0 003.515 3.516 3.52 3.52 0 003.516-3.516 3.52 3.52 0 00-3.516-3.515zm0 8.437a4.928 4.928 0 01-4.922-4.922 4.928 4.928 0 014.921-4.922 4.928 4.928 0 014.922 4.922 4.928 4.928 0 01-4.922 4.922zm-25.313-8.437a3.52 3.52 0 00-3.516 3.515 3.52 3.52 0 003.516 3.516 3.52 3.52 0 003.515-3.516 3.52 3.52 0 00-3.515-3.515zm0 8.437a4.928 4.928 0 01-4.922-4.922 4.928 4.928 0 014.922-4.922 4.928 4.928 0 014.922 4.922 4.928 4.928 0 01-4.922 4.922z" fill="#00E3F1"/><path fill-rule="evenodd" clip-rule="evenodd" d="M16.172 41.485H4.57c-2.52 0-4.57-2.05-4.57-4.57 0-2.52 2.05-4.571 4.57-4.571h36.211a2.815 2.815 0 002.813-2.813 2.815 2.815 0 00-2.813-2.812H28.828a4.928 4.928 0 01-4.922-4.922v-2.813h1.407v2.813a3.52 3.52 0 003.515 3.515h11.953A4.223 4.223 0 0145 29.532a4.223 4.223 0 01-4.219 4.218H4.571a3.168 3.168 0 00-3.165 3.164A3.169 3.169 0 004.57 40.08h11.602v1.406z" fill="#00E3F1"/><path fill-rule="evenodd" clip-rule="evenodd" d="M16.544 20.392h12.548v-1.407H16.544v1.407zm28.111-.001h-2.377v-1.406h1.174l.339-2.155 1.389.218-.525 3.343zM2.87 20.13L.987 17.786a5.855 5.855 0 01-.733-4.639l1.31-4.983A10.953 10.953 0 0112.153 0h9.587a6.433 6.433 0 015.662 3.371l1.931 3.567a2.67 2.67 0 001.919 1.359l6.341 1.012-.222 1.388-6.341-1.012a4.085 4.085 0 01-2.933-2.077l-1.932-3.566a5.03 5.03 0 00-4.425-2.636h-9.587a9.547 9.547 0 00-9.228 7.117l-1.31 4.983a4.446 4.446 0 00.537 3.49l1.813 2.251-1.096.882zm37.472-9.187c.112.38.517 1.118 1.336 1.938.82.819 1.557 1.224 1.937 1.335-.112-.38-.517-1.118-1.336-1.937-.818-.819-1.556-1.224-1.937-1.336zm3.477 4.713c-.3 0-.67-.082-1.127-.298-.643-.304-1.356-.83-2.008-1.483-1.359-1.359-2.33-3.13-1.435-4.025.896-.894 2.666.077 4.024 1.434.653.652 1.18 1.366 1.484 2.01.523 1.103.262 1.705-.05 2.015-.181.182-.463.348-.888.348z" fill="#00E3F1"/><path fill-rule="evenodd" clip-rule="evenodd" d="M14.92 9.67h12.502V8.266H14.92V9.67z" fill="#00E3F1"/><path fill-rule="evenodd" clip-rule="evenodd" d="M19.964 19.688h-1.407v-8.409a1.61 1.61 0 00-1.61-1.608h-2.954a2.997 2.997 0 01-2.565-1.43 2.996 2.996 0 01-.133-2.935L13.756.39l1.257.628-2.459 4.918a1.6 1.6 0 00.07 1.566c.296.478.808.763 1.37.763h2.955a3.019 3.019 0 013.016 3.015v8.409zM3.27 9.671H2.08V8.265h1.19a4.094 4.094 0 003.65-2.274L9.91.55l1.232.677-2.974 5.411c-.9 1.831-2.827 3.032-4.899 3.032z" fill="#00E3F1"/></svg>