<svg width="31" height="30" fill="none" xmlns="http://www.w3.org/2000/svg"><path d="M28.92 7.658a15.372 15.372 0 00-5.64-5.596C20.905.687 18.312 0 15.5 0c-2.812 0-5.406.687-7.78 2.062a15.37 15.37 0 00-5.641 5.596C.693 10.014 0 12.586 0 15.376c0 3.35.985 6.363 2.957 9.039 1.97 2.676 4.517 4.528 7.638 5.556.364.066.633.02.808-.14a.78.78 0 00.262-.6l-.01-1.082c-.007-.68-.01-1.275-.01-1.782l-.465.08a5.903 5.903 0 01-1.12.07 8.596 8.596 0 01-1.402-.14 3.146 3.146 0 01-1.353-.6 2.54 2.54 0 01-.887-1.231l-.202-.46a4.997 4.997 0 00-.636-1.022c-.29-.374-.582-.627-.878-.76l-.141-.1a1.475 1.475 0 01-.262-.241 1.096 1.096 0 01-.182-.28c-.04-.094-.007-.171.101-.231.108-.06.303-.09.585-.09l.404.06c.269.054.602.213.999.48s.723.614.979 1.041c.31.548.682.965 1.12 1.252.437.287.878.43 1.321.43.444 0 .828-.033 1.15-.1.324-.066.626-.167.909-.3.121-.895.45-1.582.989-2.063-.767-.08-1.457-.2-2.069-.36a8.275 8.275 0 01-1.897-.781 5.422 5.422 0 01-1.625-1.341c-.43-.534-.783-1.235-1.059-2.102-.276-.868-.414-1.87-.414-3.004 0-1.615.532-2.99 1.595-4.124-.498-1.214-.451-2.576.141-4.084.39-.12.969-.03 1.736.27.767.3 1.328.558 1.685.771.357.213.642.394.858.54a14.44 14.44 0 013.875-.52c1.332 0 2.623.174 3.875.52l.767-.48c.524-.32 1.144-.614 1.856-.88.713-.268 1.259-.341 1.636-.22.605 1.507.659 2.869.16 4.083 1.064 1.135 1.595 2.51 1.595 4.125 0 1.134-.138 2.138-.413 3.012-.276.875-.632 1.575-1.07 2.103a5.632 5.632 0 01-1.635 1.331c-.652.36-1.285.62-1.897.781-.612.16-1.302.28-2.068.36.699.601 1.049 1.549 1.049 2.844v4.224c0 .24.084.44.252.6.168.16.434.207.797.14 3.122-1.028 5.669-2.88 7.64-5.556C30.014 21.738 31 18.725 31 15.375c0-2.789-.694-5.361-2.08-7.717z" fill="#fff"/></svg>