<svg width="23" height="18" fill="none" xmlns="http://www.w3.org/2000/svg"><path d="M22.299 2.072a9.38 9.38 0 01-2.627.697 4.472 4.472 0 002.01-2.446 9.416 9.416 0 01-2.906 1.074A4.635 4.635 0 0015.438 0c-2.527 0-4.575 1.98-4.575 4.422 0 .346.04.684.118 1.008-3.8-.185-7.171-1.946-9.427-4.622a4.279 4.279 0 00-.62 2.223c0 1.535.81 2.889 2.035 3.681a4.695 4.695 0 01-2.072-.555v.055c0 2.143 1.578 3.93 3.67 4.337a4.78 4.78 0 01-1.206.155c-.296 0-.581-.028-.861-.082.582 1.758 2.271 3.037 4.272 3.072a9.38 9.38 0 01-5.681 1.89c-.37 0-.733-.021-1.091-.06a13.253 13.253 0 007.012 1.99c8.415 0 13.014-6.74 13.014-12.584l-.015-.573a8.975 8.975 0 002.288-2.285z" fill="#fff"/></svg>