<svg width="22" height="19" fill="none" xmlns="http://www.w3.org/2000/svg"><path fill-rule="evenodd" clip-rule="evenodd" d="M5.412 10.41L.385 8.632a.552.552 0 01-.006-1.05L21.008.04c.437-.16.888.203.793.636L18.1 17.554c-.087.399-.58.58-.928.34l-5.053-3.476a.87.87 0 00-1.02.025l-2.801 2.166c-.325.252-.815.111-.94-.27l-1.945-5.93zm11.455-6.682L7.044 9.462a.917.917 0 00-.433 1.055l1.063 3.537c.075.25.459.225.495-.033l.277-1.941c.052-.366.236-.702.52-.952l8.108-7.142c.151-.133-.03-.36-.207-.258z" fill="#fff"/></svg>